<svg width="608" height="92" viewBox="0 0 608 92" fill="none" xmlns="http://www.w3.org/2000/svg">
<g clip-path="url(#clip0_1249_638)">
<mask id="mask0_1249_638" style="mask-type:luminance" maskUnits="userSpaceOnUse" x="0" y="0" width="91" height="91">
<path d="M90.9182 0.000976562H0.769531V90.1497H90.9182V0.000976562Z" fill="white"/>
</mask>
<g mask="url(#mask0_1249_638)">
<path fill-rule="evenodd" clip-rule="evenodd" d="M84.2021 0.000976562H7.43104C3.77267 0.000976562 0.769531 3.00411 0.769531 6.66248V83.4335C0.769531 87.1465 3.77267 90.1497 7.43104 90.1497H20.6994C23.8664 89.9858 25.9413 88.7846 26.9787 86.4367C29.545 78.4101 37.0802 72.6223 45.9804 72.6223C54.8806 72.6223 62.4158 78.4101 65.0367 86.4367C66.0741 88.7846 68.149 89.9858 71.316 90.1497H84.2021C87.9151 90.1497 90.9183 87.1465 90.9183 83.4335V6.66248C90.9183 3.00411 87.9151 0.000976562 84.2021 0.000976562ZM64.1084 53.839H27.5248C26.5419 53.839 25.8867 52.7469 26.3781 51.8187L44.6699 20.1493C45.216 19.2756 46.4718 19.2756 47.0178 20.1493L65.3097 51.8187C65.8011 52.7469 65.1459 53.839 64.1084 53.839Z" fill="#20E492"/>
</g>
<mask id="mask1_1249_638" style="mask-type:luminance" maskUnits="userSpaceOnUse" x="112" y="3" width="496" height="89">
<path d="M607.731 3.10156H112.188V91.1993H607.731V3.10156Z" fill="white"/>
</mask>
<g mask="url(#mask1_1249_638)">
<path d="M482.436 31.2836V36.7453C482.436 38.8208 482.709 40.9508 483.146 42.9717L483.802 45.8118C483.911 46.2487 483.583 46.631 483.146 46.631H481.781C481.781 46.631 481.235 46.4672 481.125 46.1395C478.504 37.1822 470.53 30.082 457.531 30.082C440.217 30.082 429.021 43.1901 429.021 60.6131C429.021 78.036 440.217 91.1987 457.531 91.1987C470.53 91.1987 478.504 84.1531 481.125 75.2505C481.235 74.9774 481.453 74.7589 481.781 74.7589H483.146C483.583 74.7589 483.911 75.1959 483.802 75.5782L483.146 78.4729C482.709 80.4938 482.436 82.5692 482.436 84.6447V90.0518H492.158V31.2836H482.436ZM460.098 82.9515C447.918 82.9515 438.688 76.4521 438.688 60.6131C438.688 44.774 447.918 38.4931 460.098 38.4931C472.277 38.4931 482.436 44.9925 482.436 60.6131C482.436 76.2336 472.168 82.9515 460.098 82.9515Z" fill="black"/>
<path d="M159.103 6.65186H139.004L112.187 89.9979H121.854L130.756 62.0884H167.35L176.253 89.9979H185.974L159.103 6.65186ZM134.962 49.0895L135.235 48.2703L147.469 9.81966C147.469 9.81966 147.852 9.38272 148.125 9.38272H149.982C149.982 9.38272 150.528 9.54657 150.637 9.81966L161.998 45.4301L163.144 49.0895L164.619 53.8412L164.783 54.3328H133.214L133.378 53.8412L134.962 49.0895Z" fill="black"/>
<path d="M233.052 30.0278C219.835 30.0278 211.97 37.1281 209.294 46.14C209.294 46.413 208.966 46.6315 208.693 46.6315H207.273C206.836 46.6315 206.563 46.1946 206.672 45.8122L207.382 42.5352C207.819 40.7875 207.983 38.9305 207.983 37.1281V3.10156H198.315V89.9976H207.983V85.1913C207.983 82.7335 207.71 80.2758 207.163 77.8726L206.672 75.5787C206.563 75.1417 206.836 74.7594 207.273 74.7594H208.693C208.693 74.7594 209.239 74.9233 209.294 75.251C211.97 84.099 219.835 91.1992 233.052 91.1992C250.093 91.1992 260.961 78.0365 260.961 60.5589C260.961 43.0814 250.093 30.0278 233.052 30.0278ZM230.103 82.8974C218.032 82.8974 207.983 76.1795 207.983 60.5589C207.983 44.9384 218.032 38.4389 230.103 38.4389C242.173 38.4389 251.294 45.0476 251.294 60.5589C251.294 76.0702 242.282 82.8974 230.103 82.8974Z" fill="black"/>
<path d="M320.989 74.7598C320.989 83.6079 315.418 91.1996 297.832 91.1996C278.77 91.1996 270.96 82.297 270.96 68.3696H280.682C280.682 78.5284 286.581 83.2801 297.941 83.2801C307.062 83.2801 311.322 81.1501 311.322 75.0875C311.322 67.4411 303.348 66.1303 293.79 63.181C282.703 59.6309 273.691 56.19 273.691 45.5396C273.691 36.2 281.61 30.0283 295.101 30.0283C313.398 30.0283 318.969 40.0779 318.969 49.7997H309.301C309.301 41.8802 304.44 37.9478 295.101 37.9478C288.601 37.9478 283.413 39.9686 283.413 45.3211C283.413 50.6736 287.509 52.6398 297.012 55.6984C308.591 59.5216 320.989 62.0886 320.989 74.7598Z" fill="black"/>
<path d="M370.907 82.8972V91.1991H348.569C342.998 91.5268 340.376 88.5774 340.376 83.1703V39.6403H327.486V31.2293H340.376V13.1509H350.207V31.2293H368.504V39.6403H350.207V82.8972H370.907Z" fill="black"/>
<path d="M425.036 30.1915V38.548H393.905V89.9975H384.237V38.2203C384.237 32.6493 386.804 29.9185 392.375 30.1915H425.036Z" fill="black"/>
<path d="M549.121 67.7688H558.953C557.423 84.8094 542.895 91.1996 531.535 91.1996C512.473 91.1996 501.495 77.5999 501.495 60.5594C501.495 43.5188 512.473 30.0283 531.535 30.0283C542.895 30.0283 557.423 36.5277 558.953 53.5683H549.121C547.483 42.3718 540.055 38.4393 531.535 38.4393C517.553 38.4393 511.162 48.4889 511.162 60.5594C511.162 72.6298 517.553 82.8978 531.535 82.8978C540.055 82.8978 547.483 78.9108 549.121 67.7688Z" fill="black"/>
<path d="M607.724 82.8972V91.1991H585.385C579.814 91.5268 577.247 88.5774 577.247 83.1703V39.6403H564.357V31.2293H577.247V13.1509H587.024V31.2293H605.375V39.6403H587.024V82.8972H607.724Z" fill="black"/>
</g>
</g>
<defs>
<clipPath id="clip0_1249_638">
<rect width="608" height="92" fill="white"/>
</clipPath>
</defs>
</svg>
