<svg width="608" height="92" viewBox="0 0 608 92" fill="none" xmlns="http://www.w3.org/2000/svg">
<mask id="mask0_1249_638" style="mask-type:luminance" maskUnits="userSpaceOnUse" x="82" y="13" width="66" height="66">
<path d="M147.905 13H82V78.905H147.905V13Z" fill="white"/>
</mask>
<g mask="url(#mask0_1249_638)">
<path fill-rule="evenodd" clip-rule="evenodd" d="M142.995 13H86.87C84.1955 13 82 15.1955 82 17.87V73.995C82 76.7095 84.1955 78.905 86.87 78.905H96.5701C98.8854 78.7852 100.402 77.907 101.161 76.1906C103.037 70.3226 108.546 66.0913 115.052 66.0913C121.559 66.0913 127.068 70.3226 128.984 76.1906C129.742 77.907 131.259 78.7852 133.574 78.905H142.995C145.709 78.905 147.905 76.7095 147.905 73.995V17.87C147.905 15.1955 145.709 13 142.995 13ZM128.305 52.3594H101.56C100.841 52.3594 100.362 51.561 100.722 50.8824L114.094 27.7299C114.493 27.0911 115.412 27.0911 115.811 27.7299L129.183 50.8824C129.543 51.561 129.064 52.3594 128.305 52.3594Z" fill="#20E492"/>
</g>
<mask id="mask1_1249_638" style="mask-type:luminance" maskUnits="userSpaceOnUse" x="163" y="15" width="363" height="65">
<path d="M525.731 15.2671H163.455V79.6726H525.731V15.2671Z" fill="white"/>
</mask>
<g mask="url(#mask1_1249_638)">
<path d="M434.132 35.8702V39.863C434.132 41.3804 434.331 42.9375 434.651 44.415L435.13 46.4913C435.21 46.8107 434.97 47.0902 434.651 47.0902H433.653C433.653 47.0902 433.254 46.9704 433.173 46.7308C431.257 40.1824 425.428 34.9917 415.924 34.9917C403.267 34.9917 395.082 44.5746 395.082 57.3121C395.082 70.0494 403.267 79.6723 415.924 79.6723C425.428 79.6723 431.257 74.5214 433.173 68.013C433.254 67.8134 433.413 67.6536 433.653 67.6536H434.651C434.97 67.6536 435.21 67.9731 435.13 68.2526L434.651 70.3688C434.331 71.8462 434.132 73.3635 434.132 74.8808V78.8338H441.239V35.8702H434.132ZM417.801 73.643C408.897 73.643 402.149 68.8915 402.149 57.3121C402.149 45.7326 408.897 41.1408 417.801 41.1408C426.705 41.1408 434.132 45.8923 434.132 57.3121C434.132 68.7317 426.625 73.643 417.801 73.643Z" fill="black"/>
<path d="M197.753 17.8623H183.059L163.454 78.794H170.521L177.029 58.3903H203.782L210.291 78.794H217.398L197.753 17.8623ZM180.104 48.8872L180.304 48.2883L189.248 20.1782C189.248 20.1782 189.528 19.8588 189.727 19.8588H191.085C191.085 19.8588 191.484 19.9785 191.564 20.1782L199.869 46.2119L200.707 48.8872L201.786 52.361L201.905 52.7204H178.826L178.946 52.361L180.104 48.8872Z" fill="black"/>
<path d="M251.815 34.9521C242.152 34.9521 236.402 40.1429 234.446 46.7312C234.446 46.9308 234.206 47.0905 234.006 47.0905H232.968C232.649 47.0905 232.449 46.7711 232.529 46.4916L233.048 44.0959C233.368 42.8182 233.487 41.4606 233.487 40.1429V15.2671H226.419V78.7942H233.487V75.2804C233.487 73.4836 233.288 71.6869 232.888 69.9299L232.529 68.2529C232.449 67.9335 232.649 67.654 232.968 67.654H234.006C234.006 67.654 234.406 67.7738 234.446 68.0134C236.402 74.4819 242.152 79.6726 251.815 79.6726C264.273 79.6726 272.218 70.0498 272.218 57.2724C272.218 44.4952 264.273 34.9521 251.815 34.9521ZM249.659 73.6034C240.834 73.6034 233.487 68.6922 233.487 57.2724C233.487 45.8528 240.834 41.1012 249.659 41.1012C258.483 41.1012 265.151 45.9326 265.151 57.2724C265.151 68.6123 258.562 73.6034 249.659 73.6034Z" fill="black"/>
<path d="M316.103 67.654C316.103 74.1226 312.03 79.6726 299.174 79.6726C285.238 79.6726 279.528 73.1642 279.528 62.9823H286.636C286.636 70.4091 290.948 73.8829 299.253 73.8829C305.921 73.8829 309.036 72.3257 309.036 67.8936C309.036 62.3035 303.206 61.3452 296.219 59.1891C288.113 56.5937 281.525 54.0782 281.525 46.292C281.525 39.4641 287.314 34.9521 297.177 34.9521C310.553 34.9521 314.626 42.2991 314.626 49.4064H307.558C307.558 43.6167 304.005 40.7419 297.177 40.7419C292.425 40.7419 288.632 42.2192 288.632 46.1322C288.632 50.0453 291.627 51.4827 298.574 53.7188C307.039 56.5138 316.103 58.3905 316.103 67.654Z" fill="black"/>
<path d="M352.596 73.6032V79.6724H336.265C332.192 79.912 330.276 77.7558 330.276 73.8028V41.9794H320.852V35.8303H330.276V22.6138H337.463V35.8303H350.839V41.9794H337.463V73.6032H352.596Z" fill="black"/>
<path d="M392.168 35.0712V41.1804H369.409V78.7936H362.341V40.9408C362.341 36.8681 364.218 34.8717 368.291 35.0712H392.168Z" fill="black"/>
<path d="M482.883 62.5431H490.071C488.953 75.0009 478.332 79.6726 470.027 79.6726C456.091 79.6726 448.065 69.7303 448.065 57.2725C448.065 44.8146 456.091 34.9521 470.027 34.9521C478.332 34.9521 488.953 39.7037 490.071 52.1615H482.883C481.686 43.9761 476.255 41.1012 470.027 41.1012C459.805 41.1012 455.133 48.4481 455.133 57.2725C455.133 66.0968 459.805 73.6034 470.027 73.6034C476.255 73.6034 481.686 70.6887 482.883 62.5431Z" fill="black"/>
<path d="M525.726 73.6032V79.6724H509.394C505.322 79.912 503.445 77.7558 503.445 73.8028V41.9794H494.021V35.8303H503.445V22.6138H510.593V35.8303H524.008V41.9794H510.593V73.6032H525.726Z" fill="black"/>
</g>
</svg>
