<svg width="126" height="126" viewBox="0 0 126 126" fill="none" xmlns="http://www.w3.org/2000/svg">
<g clip-path="url(#clip0_1249_681)">
<path d="M63 0C28.1777 0 0 28.1777 0 63C0 97.8223 28.1777 126 63 126C97.8223 126 126 97.8223 126 63C126 28.1777 97.5929 0 63 0ZM63 114.545C34.3635 114.545 11.2253 91.4076 11.2253 63C11.2253 34.3635 34.3635 11.2253 63 11.2253C91.6365 11.2253 114.545 34.3635 114.545 63C114.545 91.4071 91.4076 114.545 63 114.545ZM56.1271 80.1818L37.5711 63L56.1271 45.5889V29.3235L20.6182 63L56.1271 96.4471V80.1823V80.1818ZM69.6435 29.324V45.5889L88.2 63L69.6435 80.1823V96.4471L105.153 63L69.6435 29.324Z" fill="#53ADC0"/>
</g>
<defs>
<clipPath id="clip0_1249_681">
<rect width="126" height="126" fill="white"/>
</clipPath>
</defs>
</svg>
