<svg xmlns="http://www.w3.org/2000/svg" id="canvas" viewBox="232.316 372.054 907.105 152.947"><path d="M 248.45,375.76 C 247.85 376.76, 247.50 378.02, 247.02 380.88 C 246.54 383.74, 246.51 385.71, 246.06 390.05 C 245.62 394.39, 245.47 397.22, 244.79 402.58 C 244.12 407.95, 243.53 411.07, 242.69 416.90 C 241.85 422.73, 241.46 425.84, 240.59 431.74 C 239.73 437.64, 239.14 440.80, 238.36 446.39 C 237.59 451.97, 237.28 454.75, 236.72 459.67 C 236.16 464.59, 235.79 467.05, 235.56 470.97 C 235.34 474.89, 235.13 476.86, 235.59 479.28 C 236.04 481.71, 237.20 482.41, 237.84 483.10 C 238.48 483.79, 238.74 483.55, 238.80 482.73 C 238.86 481.91, 238.26 481.30, 238.15 478.98 C 238.04 476.65, 238.10 474.92, 238.25 471.10 C 238.41 467.29, 238.51 464.78, 238.93 459.89 C 239.35 455.00, 239.64 452.23, 240.36 446.65 C 241.09 441.08, 241.67 437.92, 242.55 432.03 C 243.43 426.14, 243.83 423.04, 244.77 417.22 C 245.70 411.40, 246.38 408.29, 247.23 402.93 C 248.07 397.57, 248.36 394.75, 249.00 390.42 C 249.65 386.09, 250.23 384.18, 250.43 381.28 C 250.64 378.38, 250.42 377.02, 250.03 375.92 C 249.63 374.82, 249.05 374.77, 248.45 375.76" style="stroke: black; fill: black;"/><path d="M 349.36,433.08 C 348.72 433.94, 348.31 435.38, 347.86 437.58 C 347.42 439.78, 347.32 441.33, 347.13 444.07 C 346.94 446.81, 346.99 448.57, 346.91 451.27 C 346.83 453.97, 346.85 455.34, 346.72 457.58 C 346.60 459.82, 346.32 460.94, 346.31 462.47 C 346.30 464.01, 346.39 464.77, 346.68 465.27 C 346.97 465.77, 347.27 465.83, 347.77 464.98 C 348.28 464.12, 348.61 463.22, 349.21 461.00 C 349.81 458.77, 349.98 457.13, 350.78 453.87 C 351.58 450.61, 351.95 448.30, 353.21 444.70 C 354.46 441.09, 355.36 439.07, 357.07 435.84 C 358.78 432.61, 359.78 431.06, 361.75 428.55 C 363.71 426.03, 364.81 424.99, 366.89 423.27 C 368.97 421.56, 369.95 420.89, 372.15 419.97 C 374.35 419.04, 375.44 418.97, 377.86 418.67 C 380.29 418.37, 381.70 418.53, 384.27 418.47 C 386.84 418.41, 388.23 418.36, 390.73 418.37 C 393.22 418.38, 394.54 418.43, 396.77 418.50 C 399.00 418.58, 400.30 418.53, 401.89 418.77 C 403.47 419.01, 403.90 419.11, 404.70 419.70 C 405.50 420.29, 405.65 420.69, 405.89 421.71 C 406.13 422.73, 406.24 423.14, 405.91 424.79 C 405.58 426.45, 404.99 427.50, 404.24 429.98 C 403.49 432.47, 403.05 434.14, 402.17 437.22 C 401.28 440.30, 400.65 442.17, 399.83 445.37 C 399.02 448.58, 398.45 450.32, 398.08 453.24 C 397.72 456.16, 397.64 457.57, 398.00 459.97 C 398.35 462.38, 398.66 463.55, 399.86 465.26 C 401.06 466.98, 402.08 467.75, 403.99 468.54 C 405.90 469.34, 407.04 469.49, 409.40 469.24 C 411.77 468.99, 413.22 468.71, 415.81 467.28 C 418.39 465.85, 419.79 464.64, 422.32 462.09 C 424.85 459.53, 426.04 457.66, 428.45 454.51 C 430.86 451.37, 432.16 449.60, 434.39 446.36 C 436.61 443.12, 437.80 441.21, 439.57 438.33 C 441.33 435.44, 442.35 433.82, 443.21 431.96 C 444.08 430.10, 444.01 429.36, 443.88 429.04 C 443.74 428.72, 443.25 429.14, 442.55 430.36 C 441.85 431.58, 441.10 432.73, 440.37 435.13 C 439.63 437.52, 439.23 439.46, 438.89 442.36 C 438.56 445.25, 438.57 446.94, 438.69 449.61 C 438.80 452.27, 438.87 453.39, 439.48 455.69 C 440.09 457.98, 440.46 459.35, 441.75 461.09 C 443.03 462.82, 444.03 463.61, 445.89 464.37 C 447.76 465.13, 448.92 465.21, 451.06 464.89 C 453.21 464.57, 454.38 464.20, 456.64 462.77 C 458.89 461.35, 460.06 460.07, 462.35 457.77 C 464.63 455.46, 465.85 453.86, 468.06 451.24 C 470.26 448.61, 471.38 447.14, 473.37 444.64 C 475.35 442.14, 476.40 440.80, 477.98 438.72 C 479.55 436.64, 480.28 435.66, 481.23 434.26 C 482.19 432.85, 482.56 432.12, 482.75 431.69 C 482.95 431.26, 482.57 431.22, 482.22 432.09 C 481.87 432.97, 481.48 434.05, 481.01 436.04 C 480.55 438.04, 480.38 439.45, 479.91 442.06 C 479.44 444.66, 479.06 446.41, 478.66 449.07 C 478.26 451.74, 477.91 453.34, 477.91 455.38 C 477.91 457.42, 478.08 458.25, 478.66 459.28 C 479.25 460.30, 479.67 460.63, 480.84 460.52 C 482.02 460.40, 482.98 460.17, 484.53 458.68 C 486.08 457.19, 486.84 455.69, 488.59 453.06 C 490.34 450.43, 491.13 448.44, 493.28 445.53 C 495.43 442.61, 496.81 441.11, 499.34 438.50 C 501.87 435.89, 503.40 434.45, 505.94 432.47 C 508.48 430.49, 510.02 429.69, 512.06 428.60 C 514.11 427.50, 514.90 427.16, 516.17 427.01 C 517.43 426.87, 517.85 426.94, 518.40 427.87 C 518.94 428.79, 518.76 429.64, 518.88 431.62 C 519.00 433.60, 518.87 435.16, 519.00 437.77 C 519.13 440.38, 519.27 441.96, 519.54 444.69 C 519.81 447.41, 519.73 448.91, 520.34 451.40 C 520.95 453.88, 521.40 455.15, 522.60 457.11 C 523.79 459.07, 524.54 459.94, 526.32 461.20 C 528.11 462.45, 529.24 462.98, 531.52 463.36 C 533.81 463.75, 535.20 463.58, 537.73 463.12 C 540.27 462.65, 541.57 462.21, 544.21 461.04 C 546.84 459.88, 548.58 458.92, 550.91 457.30 C 553.24 455.68, 554.28 454.53, 555.85 452.95 C 557.41 451.36, 558.33 450.32, 558.73 449.38 C 559.13 448.43, 558.83 448.08, 557.83 448.23 C 556.83 448.39, 555.59 449.11, 553.71 450.16 C 551.84 451.21, 550.72 452.13, 548.44 453.50 C 546.17 454.87, 544.65 455.87, 542.33 457.01 C 540.02 458.14, 538.94 458.62, 536.87 459.15 C 534.81 459.69, 533.74 459.83, 532.02 459.68 C 530.29 459.53, 529.53 459.26, 528.25 458.40 C 526.98 457.54, 526.46 456.92, 525.65 455.36 C 524.84 453.81, 524.53 452.82, 524.20 450.62 C 523.87 448.43, 524.09 447.02, 524.00 444.39 C 523.91 441.75, 523.97 440.15, 523.74 437.45 C 523.52 434.75, 523.53 433.15, 522.87 430.89 C 522.21 428.63, 521.79 427.46, 520.45 426.14 C 519.11 424.82, 518.16 424.46, 516.17 424.31 C 514.18 424.15, 512.98 424.28, 510.50 425.37 C 508.03 426.47, 506.51 427.60, 503.80 429.76 C 501.10 431.92, 499.66 433.49, 496.98 436.19 C 494.30 438.88, 492.86 440.39, 490.41 443.23 C 487.96 446.07, 486.58 447.83, 484.74 450.40 C 482.89 452.96, 482.12 454.35, 481.17 456.06 C 480.23 457.78, 480.12 458.39, 480.00 458.98 C 479.88 459.57, 480.19 459.63, 480.56 459.02 C 480.93 458.42, 481.28 457.76, 481.85 455.96 C 482.41 454.16, 482.75 452.62, 483.40 450.02 C 484.04 447.42, 484.62 445.67, 485.08 442.96 C 485.54 440.25, 485.75 438.73, 485.68 436.48 C 485.61 434.22, 485.44 432.96, 484.74 431.69 C 484.05 430.42, 483.41 430.08, 482.21 430.13 C 481.01 430.19, 480.20 430.73, 478.74 431.97 C 477.28 433.21, 476.55 434.24, 474.89 436.31 C 473.23 438.39, 472.37 439.84, 470.43 442.33 C 468.49 444.83, 467.39 446.28, 465.19 448.78 C 462.99 451.27, 461.60 452.71, 459.43 454.82 C 457.25 456.94, 456.12 458.02, 454.31 459.35 C 452.51 460.68, 451.82 461.10, 450.39 461.49 C 448.95 461.89, 448.30 461.81, 447.15 461.33 C 445.99 460.85, 445.43 460.39, 444.60 459.10 C 443.78 457.81, 443.38 456.75, 443.02 454.86 C 442.66 452.98, 442.61 452.02, 442.80 449.67 C 443.00 447.32, 443.49 445.83, 444.00 443.12 C 444.50 440.42, 445.06 438.62, 445.33 436.14 C 445.60 433.67, 445.67 432.31, 445.34 430.74 C 445.02 429.16, 444.66 428.38, 443.69 428.27 C 442.71 428.15, 441.91 428.53, 440.48 430.17 C 439.06 431.82, 438.30 433.61, 436.55 436.49 C 434.81 439.38, 433.91 441.40, 431.78 444.60 C 429.65 447.80, 428.30 449.53, 425.90 452.50 C 423.50 455.47, 422.20 457.22, 419.77 459.44 C 417.34 461.66, 415.95 462.38, 413.76 463.60 C 411.57 464.83, 410.56 465.17, 408.83 465.55 C 407.11 465.92, 406.41 465.90, 405.13 465.50 C 403.86 465.09, 403.18 464.70, 402.44 463.53 C 401.69 462.35, 401.49 461.57, 401.41 459.63 C 401.33 457.69, 401.59 456.46, 402.03 453.81 C 402.46 451.15, 402.76 449.42, 403.58 446.35 C 404.40 443.28, 405.11 441.48, 406.14 438.46 C 407.16 435.44, 407.95 433.92, 408.69 431.26 C 409.42 428.60, 409.78 427.27, 409.80 425.16 C 409.82 423.05, 409.44 422.25, 408.80 420.70 C 408.15 419.16, 407.78 418.53, 406.57 417.45 C 405.35 416.36, 404.63 415.88, 402.72 415.29 C 400.81 414.69, 399.40 414.66, 397.01 414.46 C 394.61 414.27, 393.31 414.32, 390.74 414.32 C 388.16 414.31, 386.82 414.31, 384.13 414.44 C 381.45 414.56, 379.98 414.48, 377.31 414.93 C 374.63 415.39, 373.28 415.60, 370.75 416.73 C 368.21 417.86, 366.95 418.61, 364.63 420.58 C 362.32 422.55, 361.25 423.82, 359.17 426.58 C 357.10 429.33, 356.11 430.96, 354.27 434.34 C 352.43 437.72, 351.52 439.80, 350.00 443.47 C 348.47 447.14, 347.73 449.35, 346.65 452.69 C 345.57 456.03, 344.87 457.68, 344.62 460.16 C 344.36 462.65, 344.74 463.97, 345.37 465.14 C 346.01 466.30, 346.93 466.40, 347.81 466.00 C 348.69 465.60, 349.18 464.74, 349.77 463.13 C 350.36 461.53, 350.42 460.31, 350.76 457.99 C 351.10 455.66, 351.26 454.25, 351.46 451.51 C 351.66 448.76, 351.72 447.00, 351.77 444.27 C 351.81 441.54, 351.83 440.06, 351.69 437.85 C 351.56 435.65, 351.57 434.20, 351.10 433.25 C 350.64 432.29, 350.01 432.21, 349.36 433.08" style="stroke: black; fill: black;"/><path d="M 646.84,433.39 C 647.58 433.38, 648.12 432.84, 649.24 432.22 C 650.35 431.61, 651.27 431.20, 652.40 430.32 C 653.53 429.45, 654.20 428.50, 654.88 427.85 C 655.56 427.20, 655.53 426.82, 655.81 427.07 C 656.09 427.33, 656.11 427.89, 656.27 429.11 C 656.44 430.32, 656.44 431.28, 656.65 433.14 C 656.86 434.99, 656.98 436.18, 657.33 438.41 C 657.68 440.63, 657.74 442.02, 658.40 444.28 C 659.07 446.54, 659.55 447.84, 660.65 449.72 C 661.74 451.60, 662.32 452.38, 663.89 453.66 C 665.45 454.93, 666.45 455.55, 668.46 456.09 C 670.46 456.63, 671.74 456.71, 673.89 456.37 C 676.05 456.04, 677.07 455.54, 679.21 454.43 C 681.35 453.33, 682.58 452.53, 684.61 450.84 C 686.64 449.16, 687.71 447.96, 689.37 445.99 C 691.02 444.02, 691.74 442.83, 692.89 440.99 C 694.04 439.16, 694.73 438.23, 695.11 436.80 C 695.50 435.38, 695.30 434.39, 694.81 433.86 C 694.31 433.34, 693.47 433.21, 692.64 434.18 C 691.81 435.16, 691.19 436.24, 690.65 438.74 C 690.10 441.24, 690.09 443.11, 689.90 446.68 C 689.71 450.24, 689.78 452.38, 689.69 456.55 C 689.61 460.72, 689.63 463.08, 689.46 467.54 C 689.29 472.00, 689.13 474.41, 688.86 478.86 C 688.58 483.31, 688.56 485.63, 688.09 489.78 C 687.62 493.92, 687.34 496.04, 686.50 499.59 C 685.66 503.14, 685.03 504.79, 683.90 507.54 C 682.77 510.30, 682.19 511.48, 680.87 513.36 C 679.56 515.24, 678.84 515.91, 677.31 516.92 C 675.79 517.94, 674.95 518.33, 673.26 518.45 C 671.57 518.58, 670.64 518.40, 668.86 517.55 C 667.09 516.69, 666.01 515.84, 664.39 514.19 C 662.76 512.54, 661.93 511.62, 660.73 509.29 C 659.53 506.97, 658.91 505.54, 658.38 502.55 C 657.85 499.56, 657.75 497.66, 658.08 494.36 C 658.42 491.05, 658.81 489.29, 660.06 486.04 C 661.32 482.79, 662.20 481.09, 664.35 478.10 C 666.50 475.12, 667.81 473.58, 670.79 471.11 C 673.78 468.64, 675.54 467.75, 679.26 465.77 C 682.99 463.78, 685.19 462.89, 689.40 461.19 C 693.62 459.49, 696.01 458.73, 700.33 457.27 C 704.65 455.81, 706.89 455.25, 711.02 453.89 C 715.15 452.52, 717.25 451.80, 720.98 450.46 C 724.70 449.12, 726.56 448.52, 729.67 447.18 C 732.78 445.84, 734.19 445.25, 736.53 443.76 C 738.87 442.27, 739.82 441.41, 741.36 439.74 C 742.90 438.06, 743.45 437.16, 744.24 435.39 C 745.03 433.61, 745.24 432.63, 745.31 430.87 C 745.37 429.10, 745.24 428.09, 744.59 426.56 C 743.94 425.04, 743.28 424.28, 742.05 423.24 C 740.81 422.19, 740.02 421.80, 738.42 421.35 C 736.81 420.91, 735.81 420.77, 734.03 421.02 C 732.25 421.28, 731.30 421.64, 729.52 422.63 C 727.74 423.62, 726.74 424.25, 725.13 425.98 C 723.53 427.70, 722.66 428.89, 721.51 431.25 C 720.35 433.62, 719.87 435.15, 719.36 437.81 C 718.85 440.48, 718.69 441.93, 718.95 444.59 C 719.21 447.24, 719.60 448.75, 720.66 451.09 C 721.72 453.43, 722.61 454.58, 724.26 456.30 C 725.90 458.01, 726.76 458.62, 728.89 459.67 C 731.02 460.73, 732.40 461.36, 734.91 461.58 C 737.41 461.80, 738.92 461.56, 741.41 460.78 C 743.90 460.00, 745.13 459.23, 747.35 457.68 C 749.57 456.13, 750.83 455.22, 752.52 453.03 C 754.22 450.84, 754.98 449.34, 755.83 446.73 C 756.68 444.12, 756.80 442.50, 756.77 440.00 C 756.75 437.49, 756.36 436.29, 755.71 434.19 C 755.06 432.09, 754.41 431.10, 753.52 429.49 C 752.62 427.89, 752.06 427.16, 751.25 426.16 C 750.44 425.16, 750.00 424.85, 749.48 424.51 C 748.97 424.16, 748.67 424.48, 748.67 424.43 C 748.67 424.39, 749.45 424.63, 749.49 424.30 C 749.54 423.98, 749.34 422.93, 748.88 422.80 C 748.42 422.68, 747.53 423.08, 747.21 423.69 C 746.88 424.30, 747.02 424.96, 747.24 425.85 C 747.46 426.73, 747.72 427.03, 748.30 428.12 C 748.89 429.21, 749.41 429.87, 750.17 431.31 C 750.94 432.75, 751.58 433.57, 752.13 435.31 C 752.67 437.05, 752.93 437.96, 752.90 439.99 C 752.87 442.02, 752.69 443.34, 751.98 445.45 C 751.26 447.56, 750.71 448.77, 749.33 450.55 C 747.94 452.33, 746.86 453.07, 745.03 454.35 C 743.20 455.63, 742.13 456.29, 740.17 456.96 C 738.20 457.62, 737.14 457.80, 735.21 457.68 C 733.28 457.56, 732.16 457.12, 730.50 456.34 C 728.84 455.56, 728.18 455.15, 726.93 453.79 C 725.68 452.42, 725.05 451.42, 724.25 449.52 C 723.45 447.61, 723.07 446.42, 722.92 444.25 C 722.77 442.08, 722.99 440.89, 723.49 438.67 C 724.00 436.46, 724.49 435.14, 725.45 433.17 C 726.41 431.20, 727.06 430.22, 728.28 428.81 C 729.50 427.41, 730.29 426.93, 731.56 426.13 C 732.84 425.34, 733.47 425.08, 734.65 424.85 C 735.84 424.63, 736.46 424.76, 737.48 424.99 C 738.50 425.23, 739.00 425.43, 739.77 426.02 C 740.54 426.62, 740.92 427.02, 741.34 427.97 C 741.76 428.91, 741.88 429.54, 741.86 430.76 C 741.83 431.98, 741.80 432.71, 741.22 434.05 C 740.63 435.39, 740.26 436.11, 738.94 437.46 C 737.63 438.81, 736.76 439.45, 734.64 440.82 C 732.53 442.19, 731.29 442.91, 728.36 444.31 C 725.43 445.72, 723.63 446.43, 720.00 447.85 C 716.36 449.28, 714.29 450.03, 710.20 451.44 C 706.10 452.84, 703.87 453.40, 699.52 454.88 C 695.17 456.35, 692.75 457.11, 688.45 458.82 C 684.16 460.53, 681.91 461.40, 678.03 463.42 C 674.14 465.45, 672.24 466.36, 669.03 468.95 C 665.82 471.54, 664.35 473.18, 661.97 476.36 C 659.60 479.55, 658.61 481.37, 657.17 484.89 C 655.73 488.41, 655.23 490.32, 654.76 493.97 C 654.29 497.61, 654.33 499.70, 654.81 503.12 C 655.29 506.53, 655.83 508.27, 657.16 511.06 C 658.50 513.86, 659.46 515.08, 661.49 517.09 C 663.52 519.09, 664.91 520.15, 667.33 521.10 C 669.76 522.06, 671.24 522.14, 673.60 521.86 C 675.96 521.57, 677.12 520.99, 679.13 519.68 C 681.14 518.38, 682.08 517.51, 683.64 515.32 C 685.21 513.13, 685.82 511.76, 686.96 508.74 C 688.10 505.72, 688.57 503.94, 689.33 500.21 C 690.09 496.47, 690.32 494.30, 690.75 490.06 C 691.17 485.83, 691.18 483.51, 691.46 479.03 C 691.75 474.55, 691.92 472.13, 692.19 467.67 C 692.45 463.21, 692.45 460.83, 692.80 456.72 C 693.16 452.60, 693.42 450.53, 693.95 447.09 C 694.48 443.65, 695.19 441.97, 695.45 439.52 C 695.71 437.07, 695.55 436.01, 695.26 434.84 C 694.97 433.67, 694.62 433.60, 693.99 433.68 C 693.36 433.76, 693.01 434.23, 692.12 435.23 C 691.23 436.23, 690.75 437.09, 689.54 438.67 C 688.32 440.25, 687.60 441.37, 686.05 443.13 C 684.49 444.90, 683.52 445.95, 681.75 447.49 C 679.99 449.03, 678.93 449.81, 677.22 450.84 C 675.51 451.86, 674.79 452.26, 673.22 452.60 C 671.64 452.94, 670.78 452.84, 669.35 452.52 C 667.93 452.21, 667.16 451.91, 666.10 451.00 C 665.03 450.09, 664.71 449.52, 664.02 447.96 C 663.32 446.40, 663.05 445.25, 662.63 443.21 C 662.20 441.17, 662.18 439.92, 661.90 437.75 C 661.62 435.59, 661.66 434.38, 661.25 432.39 C 660.83 430.40, 660.65 429.32, 659.83 427.82 C 659.01 426.31, 658.44 425.55, 657.16 424.86 C 655.87 424.16, 654.95 424.04, 653.40 424.33 C 651.85 424.63, 650.77 425.30, 649.39 426.31 C 648.01 427.32, 647.28 428.18, 646.50 429.37 C 645.73 430.57, 645.45 431.50, 645.51 432.30 C 645.58 433.10, 646.09 433.41, 646.84 433.39" style="stroke: black; fill: black;"/><path d="M 775.96,428.73 C 775.34 428.94, 775.10 429.31, 774.30 430.36 C 773.50 431.40, 772.90 432.07, 771.96 433.94 C 771.01 435.82, 770.50 437.27, 769.58 439.73 C 768.66 442.19, 767.98 443.65, 767.36 446.24 C 766.75 448.83, 766.46 450.23, 766.49 452.69 C 766.53 455.15, 766.61 456.51, 767.54 458.54 C 768.48 460.58, 769.38 461.66, 771.16 462.86 C 772.94 464.07, 774.10 464.34, 776.43 464.56 C 778.77 464.77, 780.18 464.65, 782.83 463.96 C 785.49 463.26, 786.98 462.56, 789.70 461.08 C 792.43 459.60, 793.78 458.58, 796.46 456.57 C 799.14 454.56, 800.65 453.35, 803.10 451.03 C 805.55 448.71, 806.97 447.32, 808.72 444.96 C 810.48 442.60, 811.20 441.20, 811.88 439.22 C 812.56 437.24, 812.55 436.04, 812.13 435.05 C 811.70 434.06, 810.86 433.76, 809.73 434.25 C 808.60 434.75, 807.57 435.69, 806.49 437.53 C 805.40 439.37, 804.83 440.87, 804.30 443.46 C 803.76 446.05, 803.73 447.75, 803.82 450.49 C 803.91 453.23, 804.06 454.78, 804.74 457.14 C 805.41 459.51, 805.94 460.54, 807.19 462.32 C 808.44 464.10, 809.21 464.90, 811.00 466.04 C 812.80 467.17, 813.87 467.67, 816.16 467.99 C 818.45 468.31, 819.88 468.17, 822.44 467.63 C 824.99 467.09, 826.44 466.54, 828.94 465.28 C 831.45 464.02, 832.73 463.03, 834.98 461.32 C 837.23 459.62, 838.27 458.69, 840.19 456.75 C 842.12 454.80, 843.02 453.62, 844.59 451.58 C 846.16 449.53, 846.97 448.42, 848.06 446.53 C 849.15 444.64, 849.68 443.49, 850.05 442.11 C 850.41 440.74, 850.25 440.02, 849.91 439.67 C 849.56 439.32, 849.09 439.46, 848.32 440.34 C 847.56 441.22, 846.84 442.10, 846.09 444.07 C 845.35 446.04, 845.03 447.68, 844.61 450.21 C 844.19 452.74, 844.19 454.37, 843.99 456.71 C 843.79 459.04, 843.46 460.19, 843.59 461.88 C 843.73 463.57, 843.96 464.56, 844.66 465.17 C 845.36 465.78, 846.14 465.71, 847.09 464.94 C 848.04 464.18, 848.50 463.29, 849.40 461.34 C 850.29 459.38, 850.69 457.88, 851.56 455.17 C 852.44 452.45, 852.58 450.62, 853.76 447.76 C 854.93 444.91, 855.74 443.34, 857.43 440.89 C 859.12 438.45, 860.06 437.28, 862.20 435.55 C 864.35 433.81, 865.53 433.22, 868.16 432.22 C 870.79 431.21, 872.62 431.05, 875.36 430.52 C 878.10 429.99, 879.60 430.01, 881.88 429.56 C 884.16 429.12, 885.79 428.85, 886.74 428.30 C 887.70 427.74, 887.69 427.22, 886.65 426.78 C 885.62 426.34, 883.99 426.15, 881.58 426.10 C 879.18 426.06, 877.58 426.02, 874.62 426.56 C 871.66 427.10, 869.71 427.56, 866.78 428.80 C 863.85 430.04, 862.43 430.78, 859.96 432.76 C 857.49 434.75, 856.41 436.08, 854.44 438.74 C 852.46 441.40, 851.61 443.10, 850.08 446.06 C 848.56 449.01, 847.84 450.74, 846.81 453.51 C 845.77 456.28, 845.30 457.82, 844.90 459.91 C 844.51 462.01, 844.66 462.99, 844.85 463.98 C 845.05 464.98, 845.39 465.22, 845.87 464.89 C 846.35 464.56, 846.72 463.83, 847.26 462.34 C 847.79 460.85, 848.02 459.68, 848.56 457.44 C 849.09 455.21, 849.43 453.61, 849.91 451.18 C 850.40 448.75, 850.74 447.32, 850.99 445.28 C 851.23 443.24, 851.44 442.23, 851.16 440.98 C 850.87 439.73, 850.37 439.14, 849.56 439.05 C 848.75 438.95, 848.11 439.42, 847.12 440.49 C 846.13 441.56, 845.76 442.67, 844.61 444.40 C 843.47 446.13, 842.85 447.22, 841.40 449.13 C 839.94 451.03, 839.12 452.13, 837.34 453.90 C 835.56 455.67, 834.56 456.48, 832.49 457.98 C 830.42 459.48, 829.20 460.30, 827.00 461.41 C 824.79 462.52, 823.56 462.98, 821.47 463.54 C 819.38 464.10, 818.27 464.30, 816.54 464.21 C 814.81 464.13, 814.10 463.87, 812.80 463.11 C 811.51 462.34, 810.93 461.76, 810.07 460.39 C 809.22 459.02, 808.87 458.22, 808.53 456.25 C 808.20 454.29, 808.20 452.91, 808.38 450.57 C 808.55 448.23, 808.95 446.80, 809.43 444.54 C 809.92 442.29, 810.43 441.09, 810.82 439.29 C 811.21 437.50, 811.45 436.44, 811.40 435.56 C 811.35 434.69, 811.12 434.50, 810.57 434.92 C 810.02 435.34, 809.68 436.13, 808.66 437.65 C 807.63 439.17, 807.08 440.36, 805.45 442.50 C 803.82 444.64, 802.76 446.14, 800.52 448.35 C 798.28 450.56, 796.79 451.72, 794.24 453.54 C 791.69 455.35, 790.29 456.15, 787.78 457.42 C 785.27 458.69, 783.93 459.21, 781.69 459.90 C 779.45 460.58, 778.34 460.81, 776.60 460.84 C 774.86 460.88, 774.17 460.80, 772.99 460.07 C 771.82 459.34, 771.28 458.64, 770.74 457.19 C 770.20 455.74, 770.12 454.75, 770.30 452.81 C 770.48 450.87, 770.81 449.73, 771.62 447.49 C 772.42 445.24, 773.35 443.92, 774.31 441.58 C 775.27 439.24, 775.79 437.74, 776.42 435.76 C 777.05 433.78, 777.26 432.99, 777.45 431.69 C 777.64 430.39, 777.67 429.87, 777.37 429.28 C 777.07 428.68, 776.57 428.51, 775.96 428.73" style="stroke: black; fill: black;"/><path d="M 1009.78,438.66 C 1009.63 437.78, 1009.02 436.76, 1007.84 435.58 C 1006.66 434.41, 1005.83 433.69, 1003.87 432.79 C 1001.92 431.88, 1000.62 431.30, 998.07 431.06 C 995.53 430.82, 994.00 430.82, 991.14 431.58 C 988.27 432.35, 986.80 433.17, 983.74 434.87 C 980.68 436.58, 978.88 437.78, 975.81 440.11 C 972.75 442.45, 970.98 443.91, 968.42 446.56 C 965.86 449.22, 964.55 450.72, 963.03 453.40 C 961.50 456.07, 960.99 457.54, 960.80 459.92 C 960.61 462.31, 960.94 463.55, 962.08 465.33 C 963.22 467.12, 964.22 467.99, 966.52 468.85 C 968.81 469.72, 970.51 469.94, 973.54 469.65 C 976.57 469.37, 978.28 468.67, 981.68 467.43 C 985.07 466.19, 987.01 465.37, 990.50 463.45 C 994.00 461.53, 996.01 460.24, 999.16 457.83 C 1002.32 455.42, 1003.81 453.86, 1006.28 451.38 C 1008.75 448.91, 1010.05 447.59, 1011.52 445.45 C 1012.98 443.31, 1013.49 442.07, 1013.60 440.69 C 1013.71 439.31, 1013.06 438.61, 1012.07 438.56 C 1011.07 438.50, 1009.85 438.96, 1008.61 440.41 C 1007.37 441.85, 1006.67 443.39, 1005.85 445.77 C 1005.03 448.14, 1004.64 449.75, 1004.53 452.29 C 1004.41 454.83, 1004.65 456.38, 1005.28 458.49 C 1005.92 460.60, 1006.73 461.47, 1007.70 462.84 C 1008.66 464.20, 1009.17 464.65, 1010.11 465.31 C 1011.05 465.97, 1011.77 466.19, 1012.38 466.15 C 1013.00 466.11, 1013.23 465.65, 1013.17 465.10 C 1013.10 464.55, 1012.56 464.23, 1012.06 463.41 C 1011.56 462.59, 1011.26 462.18, 1010.66 461.01 C 1010.06 459.83, 1009.35 459.18, 1009.04 457.54 C 1008.74 455.90, 1008.73 454.83, 1009.13 452.80 C 1009.53 450.78, 1010.42 449.53, 1011.03 447.42 C 1011.65 445.31, 1011.91 443.83, 1012.21 442.25 C 1012.51 440.67, 1012.67 440.01, 1012.54 439.52 C 1012.42 439.04, 1012.39 439.09, 1011.59 439.83 C 1010.79 440.56, 1010.08 441.35, 1008.54 443.20 C 1006.99 445.04, 1006.11 446.62, 1003.86 449.05 C 1001.60 451.48, 1000.23 453.05, 997.26 455.36 C 994.28 457.67, 992.33 458.87, 988.99 460.60 C 985.64 462.33, 983.70 463.03, 980.52 464.00 C 977.35 464.96, 975.71 465.14, 973.11 465.44 C 970.50 465.74, 969.26 465.81, 967.52 465.48 C 965.78 465.14, 965.14 464.81, 964.41 463.78 C 963.68 462.75, 963.50 462.03, 963.86 460.33 C 964.22 458.63, 964.79 457.55, 966.19 455.27 C 967.60 452.98, 968.55 451.39, 970.89 448.90 C 973.22 446.42, 974.94 444.99, 977.86 442.83 C 980.77 440.67, 982.60 439.55, 985.46 438.10 C 988.32 436.66, 989.71 436.16, 992.14 435.59 C 994.58 435.02, 995.65 435.03, 997.65 435.25 C 999.65 435.46, 1000.56 436.01, 1002.16 436.67 C 1003.75 437.34, 1004.34 437.90, 1005.62 438.56 C 1006.90 439.22, 1007.73 439.96, 1008.56 439.98 C 1009.40 440.00, 1009.92 439.54, 1009.78 438.66" style="stroke: black; fill: black;"/><path d="M 1056.29,443.08 C 1056.29 442.37, 1056.12 441.67, 1055.13 440.71 C 1054.15 439.75, 1053.38 438.86, 1051.37 438.29 C 1049.36 437.71, 1047.77 437.46, 1045.10 437.82 C 1042.43 438.17, 1040.62 438.83, 1038.03 440.08 C 1035.44 441.33, 1034.21 442.26, 1032.16 444.08 C 1030.11 445.91, 1028.95 447.08, 1027.77 449.20 C 1026.59 451.33, 1026.25 452.59, 1026.24 454.72 C 1026.23 456.86, 1026.59 458.08, 1027.72 459.87 C 1028.86 461.66, 1029.85 462.57, 1031.92 463.67 C 1033.99 464.77, 1035.47 465.17, 1038.06 465.36 C 1040.65 465.54, 1042.03 465.37, 1044.88 464.60 C 1047.74 463.83, 1049.30 463.19, 1052.32 461.51 C 1055.33 459.84, 1057.04 458.82, 1059.96 456.22 C 1062.88 453.62, 1064.33 451.86, 1066.93 448.49 C 1069.53 445.12, 1070.78 443.26, 1072.96 439.37 C 1075.13 435.48, 1076.08 433.23, 1077.81 429.04 C 1079.55 424.85, 1080.36 422.39, 1081.62 418.41 C 1082.88 414.43, 1083.45 412.55, 1084.13 409.15 C 1084.81 405.75, 1085.11 403.98, 1085.02 401.41 C 1084.94 398.83, 1084.65 397.43, 1083.71 396.26 C 1082.77 395.08, 1081.74 394.81, 1080.32 395.55 C 1078.91 396.29, 1077.80 397.31, 1076.65 399.94 C 1075.50 402.57, 1075.39 404.68, 1074.59 408.70 C 1073.79 412.72, 1073.39 415.42, 1072.66 420.05 C 1071.93 424.67, 1071.42 427.24, 1070.92 431.83 C 1070.43 436.42, 1070.30 438.83, 1070.20 443.01 C 1070.09 447.19, 1070.21 449.18, 1070.40 452.74 C 1070.59 456.30, 1070.48 458.03, 1071.15 460.82 C 1071.81 463.61, 1072.40 464.82, 1073.74 466.69 C 1075.08 468.57, 1075.96 469.36, 1077.86 470.19 C 1079.76 471.03, 1080.92 471.14, 1083.24 470.86 C 1085.57 470.58, 1086.95 470.25, 1089.48 468.80 C 1092.01 467.35, 1093.17 466.04, 1095.88 463.62 C 1098.60 461.19, 1100.12 459.56, 1103.05 456.67 C 1105.99 453.78, 1107.67 452.01, 1110.54 449.15 C 1113.41 446.30, 1114.89 444.71, 1117.39 442.40 C 1119.90 440.09, 1121.11 439.07, 1123.07 437.59 C 1125.02 436.12, 1125.88 435.56, 1127.16 435.02 C 1128.45 434.49, 1128.76 434.46, 1129.50 434.92 C 1130.25 435.39, 1130.41 436.01, 1130.88 437.34 C 1131.34 438.68, 1131.63 439.63, 1131.83 441.58 C 1132.02 443.53, 1132.01 444.64, 1131.87 447.08 C 1131.73 449.52, 1131.61 451.08, 1131.11 453.79 C 1130.61 456.51, 1130.18 458.10, 1129.39 460.66 C 1128.59 463.22, 1128.17 464.48, 1127.15 466.59 C 1126.13 468.71, 1125.54 469.67, 1124.27 471.23 C 1122.99 472.79, 1122.19 473.44, 1120.78 474.39 C 1119.37 475.34, 1118.68 475.56, 1117.22 475.98 C 1115.76 476.40, 1115.01 476.30, 1113.48 476.47 C 1111.95 476.65, 1110.39 476.41, 1109.56 476.87 C 1108.73 477.33, 1108.54 478.11, 1109.34 478.76 C 1110.13 479.41, 1111.76 480.00, 1113.53 480.13 C 1115.31 480.26, 1116.38 479.97, 1118.23 479.42 C 1120.07 478.86, 1120.98 478.53, 1122.76 477.37 C 1124.53 476.21, 1125.53 475.42, 1127.09 473.62 C 1128.66 471.81, 1129.32 470.68, 1130.58 468.36 C 1131.84 466.03, 1132.43 464.73, 1133.39 461.98 C 1134.35 459.23, 1134.80 457.54, 1135.38 454.61 C 1135.96 451.68, 1136.16 450.06, 1136.31 447.32 C 1136.45 444.59, 1136.53 443.27, 1136.09 440.94 C 1135.64 438.61, 1135.17 437.34, 1134.08 435.68 C 1132.98 434.02, 1132.17 433.32, 1130.63 432.65 C 1129.09 431.98, 1128.29 431.91, 1126.36 432.33 C 1124.44 432.75, 1123.25 433.20, 1121.02 434.74 C 1118.78 436.29, 1117.70 437.61, 1115.18 440.06 C 1112.65 442.51, 1111.26 444.14, 1108.39 447.00 C 1105.53 449.86, 1103.83 451.61, 1100.86 454.39 C 1097.89 457.16, 1096.25 458.72, 1093.56 460.88 C 1090.87 463.05, 1089.58 463.92, 1087.39 465.22 C 1085.20 466.52, 1084.29 466.94, 1082.62 467.39 C 1080.94 467.84, 1080.26 467.94, 1079.00 467.45 C 1077.74 466.97, 1077.22 466.46, 1076.32 464.97 C 1075.42 463.49, 1075.10 462.51, 1074.52 460.02 C 1073.93 457.53, 1073.73 455.91, 1073.40 452.52 C 1073.08 449.12, 1072.85 447.13, 1072.88 443.05 C 1072.91 438.97, 1073.02 436.62, 1073.55 432.13 C 1074.07 427.63, 1074.60 425.08, 1075.51 420.56 C 1076.42 416.04, 1077.05 413.34, 1078.08 409.51 C 1079.11 405.68, 1079.92 403.90, 1080.66 401.41 C 1081.40 398.91, 1081.50 397.91, 1081.76 397.04 C 1082.02 396.16, 1081.99 396.17, 1081.94 397.03 C 1081.90 397.89, 1081.71 399.02, 1081.52 401.33 C 1081.34 403.65, 1081.54 405.34, 1081.03 408.60 C 1080.52 411.85, 1080.10 413.71, 1078.97 417.60 C 1077.83 421.49, 1077.04 423.95, 1075.37 428.04 C 1073.71 432.13, 1072.77 434.33, 1070.64 438.06 C 1068.50 441.80, 1067.23 443.57, 1064.68 446.72 C 1062.13 449.87, 1060.69 451.48, 1057.88 453.80 C 1055.07 456.12, 1053.45 456.95, 1050.64 458.31 C 1047.84 459.67, 1046.33 460.01, 1043.86 460.61 C 1041.39 461.21, 1040.34 461.40, 1038.30 461.31 C 1036.25 461.23, 1035.19 460.84, 1033.63 460.17 C 1032.07 459.50, 1031.32 459.04, 1030.50 457.96 C 1029.67 456.89, 1029.42 456.17, 1029.51 454.81 C 1029.59 453.45, 1029.86 452.66, 1030.93 451.16 C 1031.99 449.66, 1033.04 448.69, 1034.84 447.31 C 1036.65 445.92, 1037.74 445.17, 1039.94 444.24 C 1042.13 443.30, 1043.70 442.96, 1045.80 442.63 C 1047.90 442.30, 1048.95 442.39, 1050.43 442.57 C 1051.92 442.76, 1052.29 443.22, 1053.24 443.55 C 1054.18 443.88, 1054.55 444.32, 1055.16 444.22 C 1055.78 444.13, 1056.30 443.78, 1056.29 443.08" style="stroke: black; fill: black;"/></svg>