<svg xmlns="http://www.w3.org/2000/svg" id="canvas" viewBox="234.472 365.336 929.721 158.503"><path d="M 238.78,369.14 C 238.03 370.16, 237.57 371.31, 237.48 374.14 C 237.40 376.97, 237.93 378.85, 238.35 383.29 C 238.78 387.74, 239.15 390.84, 239.60 396.37 C 240.05 401.90, 240.25 405.10, 240.60 410.95 C 240.95 416.80, 241.08 419.94, 241.35 425.62 C 241.62 431.29, 241.70 434.16, 241.94 439.34 C 242.17 444.52, 242.32 447.02, 242.53 451.51 C 242.75 455.99, 242.81 458.07, 243.01 461.74 C 243.21 465.42, 243.12 467.21, 243.54 469.89 C 243.97 472.57, 244.46 473.55, 245.13 475.14 C 245.80 476.73, 246.23 477.14, 246.88 477.84 C 247.54 478.54, 247.88 478.62, 248.39 478.64 C 248.91 478.67, 249.20 478.36, 249.45 477.97 C 249.70 477.59, 249.61 477.52, 249.66 476.72 C 249.70 475.92, 249.82 475.50, 249.68 473.96 C 249.53 472.42, 249.38 471.54, 248.95 469.00 C 248.52 466.47, 248.04 464.84, 247.52 461.29 C 246.99 457.74, 246.76 455.66, 246.32 451.23 C 245.89 446.80, 245.69 444.30, 245.35 439.15 C 245.00 433.99, 244.88 431.13, 244.61 425.46 C 244.34 419.79, 244.23 416.65, 244.01 410.79 C 243.80 404.93, 243.72 401.70, 243.54 396.15 C 243.36 390.59, 243.22 387.47, 243.12 383.01 C 243.01 378.55, 243.40 376.66, 243.03 373.86 C 242.66 371.06, 242.11 369.96, 241.26 369.02 C 240.41 368.07, 239.54 368.11, 238.78 369.14" style="stroke: black; fill: black;"/><path d="M 359.11,432.72 C 358.38 433.60, 358.11 434.61, 358.00 436.74 C 357.89 438.87, 357.99 440.43, 358.57 443.36 C 359.16 446.30, 360.01 448.28, 360.94 451.40 C 361.86 454.53, 362.27 456.33, 363.19 459.01 C 364.11 461.68, 364.57 463.02, 365.52 464.78 C 366.47 466.54, 366.99 467.25, 367.93 467.80 C 368.88 468.36, 369.56 468.24, 370.24 467.54 C 370.93 466.84, 371.33 466.08, 371.34 464.32 C 371.35 462.57, 371.13 461.26, 370.30 458.77 C 369.47 456.28, 368.29 454.69, 367.20 451.85 C 366.10 449.02, 365.59 447.26, 364.83 444.60 C 364.07 441.93, 363.71 440.59, 363.40 438.52 C 363.09 436.45, 363.01 435.59, 363.29 434.23 C 363.57 432.86, 363.83 432.48, 364.81 431.69 C 365.78 430.90, 366.43 430.72, 368.16 430.27 C 369.89 429.82, 371.01 429.77, 373.46 429.46 C 375.90 429.15, 377.42 428.90, 380.39 428.71 C 383.36 428.51, 385.13 428.46, 388.30 428.50 C 391.48 428.54, 393.23 428.68, 396.26 428.90 C 399.29 429.12, 400.82 429.34, 403.45 429.58 C 406.07 429.83, 407.35 429.97, 409.38 430.12 C 411.41 430.27, 412.20 430.14, 413.62 430.33 C 415.03 430.51, 415.61 431.26, 416.45 431.05 C 417.28 430.84, 418.02 430.28, 417.80 429.27 C 417.58 428.26, 416.86 426.99, 415.35 426.00 C 413.85 425.02, 412.54 424.87, 410.29 424.34 C 408.03 423.82, 406.80 423.68, 404.07 423.38 C 401.34 423.09, 399.78 423.06, 396.66 422.88 C 393.54 422.69, 391.76 422.59, 388.46 422.46 C 385.17 422.32, 383.37 422.19, 380.17 422.21 C 376.97 422.23, 375.29 422.08, 372.45 422.55 C 369.60 423.01, 368.19 423.42, 365.94 424.52 C 363.69 425.62, 362.70 426.37, 361.19 428.03 C 359.68 429.69, 359.15 430.64, 358.40 432.81 C 357.66 434.98, 357.49 436.22, 357.47 438.88 C 357.45 441.54, 357.74 443.09, 358.31 446.11 C 358.87 449.14, 359.52 450.89, 360.29 454.01 C 361.05 457.13, 361.14 459.15, 362.14 461.72 C 363.14 464.29, 363.97 465.51, 365.29 466.87 C 366.62 468.24, 367.61 468.53, 368.77 468.54 C 369.92 468.54, 370.60 468.02, 371.08 466.91 C 371.55 465.80, 371.39 464.96, 371.13 462.98 C 370.87 461.00, 370.50 459.68, 369.79 457.00 C 369.08 454.32, 368.37 452.64, 367.58 449.57 C 366.79 446.49, 366.60 444.42, 365.83 441.64 C 365.07 438.86, 364.59 437.54, 363.75 435.69 C 362.91 433.83, 362.57 432.97, 361.65 432.38 C 360.72 431.79, 359.84 431.85, 359.11 432.72" style="stroke: black; fill: black;"/><path d="M 424.93,428.92 C 424.10 429.30, 423.69 429.71, 423.15 431.11 C 422.61 432.50, 422.19 433.54, 422.23 435.88 C 422.27 438.22, 422.49 439.99, 423.34 442.82 C 424.18 445.66, 424.96 447.37, 426.46 450.06 C 427.96 452.75, 428.90 454.13, 430.83 456.27 C 432.76 458.41, 433.89 459.37, 436.11 460.77 C 438.33 462.17, 439.54 462.67, 441.91 463.27 C 444.28 463.87, 445.56 463.99, 447.97 463.78 C 450.38 463.57, 451.65 463.26, 453.96 462.23 C 456.27 461.20, 457.44 460.45, 459.50 458.63 C 461.55 456.82, 462.57 455.63, 464.24 453.15 C 465.90 450.67, 466.66 449.06, 467.83 446.24 C 469.01 443.42, 469.53 441.69, 470.12 439.06 C 470.71 436.43, 470.95 434.98, 470.78 433.10 C 470.61 431.22, 470.14 430.34, 469.28 429.65 C 468.41 428.97, 467.43 428.94, 466.45 429.66 C 465.47 430.39, 464.68 431.34, 464.38 433.28 C 464.09 435.22, 464.23 436.80, 464.98 439.35 C 465.73 441.91, 466.64 443.45, 468.13 446.05 C 469.62 448.65, 470.53 450.09, 472.44 452.34 C 474.35 454.59, 475.51 455.66, 477.70 457.32 C 479.88 458.97, 481.08 459.64, 483.36 460.63 C 485.65 461.61, 486.86 461.96, 489.11 462.24 C 491.36 462.51, 492.55 462.48, 494.63 462.01 C 496.71 461.53, 497.76 461.07, 499.53 459.85 C 501.30 458.62, 502.13 457.76, 503.47 455.88 C 504.82 454.01, 505.35 452.78, 506.25 450.46 C 507.15 448.14, 507.56 446.67, 507.98 444.28 C 508.41 441.89, 508.64 440.27, 508.38 438.52 C 508.13 436.76, 507.40 435.88, 506.71 435.49 C 506.03 435.10, 505.34 435.50, 504.96 436.58 C 504.59 437.65, 504.43 438.86, 504.84 440.86 C 505.25 442.85, 505.78 444.38, 507.03 446.55 C 508.27 448.73, 509.36 449.97, 511.06 451.74 C 512.75 453.51, 513.68 454.32, 515.50 455.40 C 517.31 456.48, 518.25 456.88, 520.14 457.15 C 522.03 457.43, 523.08 457.35, 524.94 456.77 C 526.80 456.19, 527.72 455.59, 529.44 454.24 C 531.17 452.89, 531.98 451.88, 533.58 450.00 C 535.17 448.12, 535.99 446.81, 537.43 444.85 C 538.87 442.88, 539.58 441.70, 540.76 440.16 C 541.93 438.62, 542.41 437.81, 543.30 437.14 C 544.20 436.47, 544.42 436.43, 545.24 436.79 C 546.05 437.14, 546.36 437.73, 547.38 438.92 C 548.40 440.12, 548.93 441.05, 550.33 442.77 C 551.73 444.48, 552.61 445.62, 554.37 447.48 C 556.13 449.35, 557.17 450.35, 559.14 452.09 C 561.10 453.84, 562.15 454.73, 564.21 456.19 C 566.27 457.65, 567.44 458.43, 569.43 459.40 C 571.42 460.37, 572.49 460.72, 574.15 461.03 C 575.81 461.33, 576.85 461.36, 577.74 460.92 C 578.62 460.49, 578.85 459.76, 578.55 458.86 C 578.26 457.96, 577.46 457.43, 576.26 456.42 C 575.07 455.42, 574.24 454.94, 572.59 453.85 C 570.94 452.75, 569.81 452.26, 568.03 450.93 C 566.25 449.60, 565.36 448.84, 563.68 447.20 C 562.00 445.55, 561.23 444.54, 559.63 442.70 C 558.03 440.86, 557.32 439.71, 555.66 438.00 C 554.00 436.29, 553.18 435.36, 551.33 434.17 C 549.48 432.98, 548.43 432.39, 546.39 432.05 C 544.35 431.71, 543.19 431.77, 541.13 432.46 C 539.08 433.16, 538.00 433.97, 536.10 435.53 C 534.19 437.08, 533.28 438.27, 531.60 440.24 C 529.93 442.21, 529.06 443.52, 527.71 445.39 C 526.36 447.25, 525.83 448.27, 524.86 449.57 C 523.89 450.87, 523.62 451.33, 522.85 451.87 C 522.08 452.41, 521.78 452.47, 520.99 452.27 C 520.20 452.07, 519.76 451.82, 518.89 450.89 C 518.03 449.95, 517.51 449.25, 516.65 447.59 C 515.80 445.93, 515.56 444.58, 514.62 442.58 C 513.69 440.59, 513.21 439.25, 511.98 437.62 C 510.74 435.99, 509.90 435.12, 508.46 434.44 C 507.02 433.76, 506.08 433.63, 504.75 434.23 C 503.43 434.82, 502.68 435.70, 501.85 437.43 C 501.02 439.16, 501.03 440.69, 500.59 442.86 C 500.14 445.03, 500.10 446.35, 499.61 448.29 C 499.12 450.22, 498.82 451.15, 498.12 452.54 C 497.43 453.94, 497.05 454.48, 496.11 455.27 C 495.18 456.06, 494.68 456.28, 493.44 456.51 C 492.21 456.75, 491.47 456.74, 489.95 456.47 C 488.42 456.20, 487.51 455.97, 485.84 455.16 C 484.17 454.36, 483.23 453.83, 481.62 452.43 C 480.00 451.04, 479.11 450.14, 477.77 448.20 C 476.42 446.26, 475.78 445.00, 474.89 442.74 C 474.00 440.47, 473.96 438.98, 473.31 436.87 C 472.67 434.76, 472.49 433.63, 471.68 432.18 C 470.88 430.74, 470.29 430.15, 469.30 429.63 C 468.31 429.12, 467.61 429.08, 466.72 429.60 C 465.83 430.13, 465.50 430.72, 464.85 432.26 C 464.20 433.80, 464.17 435.06, 463.47 437.31 C 462.78 439.57, 462.37 441.13, 461.37 443.56 C 460.37 445.98, 459.73 447.37, 458.47 449.44 C 457.21 451.51, 456.51 452.47, 455.08 453.92 C 453.65 455.37, 452.87 455.88, 451.32 456.68 C 449.78 457.48, 448.97 457.71, 447.37 457.91 C 445.77 458.11, 444.93 458.10, 443.33 457.70 C 441.73 457.29, 440.89 456.97, 439.37 455.88 C 437.86 454.79, 437.05 454.03, 435.76 452.24 C 434.48 450.45, 433.88 449.23, 432.95 446.91 C 432.02 444.60, 431.74 443.06, 431.13 440.65 C 430.52 438.25, 430.41 436.79, 429.89 434.89 C 429.38 432.98, 429.10 432.28, 428.57 431.14 C 428.05 430.00, 428.00 429.63, 427.27 429.19 C 426.54 428.74, 425.75 428.53, 424.93 428.92" style="stroke: black; fill: black;"/><path d="M 664.54,435.54 C 663.88 436.26, 663.55 436.90, 663.57 438.59 C 663.59 440.29, 663.68 441.66, 664.65 444.03 C 665.63 446.40, 666.50 448.04, 668.47 450.44 C 670.43 452.84, 671.91 454.14, 674.50 456.04 C 677.09 457.93, 678.59 458.79, 681.42 459.91 C 684.24 461.03, 685.79 461.35, 688.61 461.62 C 691.44 461.89, 692.90 461.80, 695.55 461.28 C 698.21 460.75, 699.56 460.30, 701.90 459.00 C 704.25 457.71, 705.40 456.80, 707.28 454.82 C 709.16 452.85, 709.97 451.55, 711.28 449.13 C 712.59 446.72, 713.10 445.22, 713.82 442.74 C 714.54 440.27, 714.85 438.81, 714.89 436.74 C 714.92 434.67, 714.70 433.53, 713.99 432.40 C 713.28 431.27, 712.33 430.87, 711.32 431.09 C 710.32 431.32, 709.44 431.90, 708.95 433.51 C 708.45 435.11, 708.24 436.47, 708.86 439.11 C 709.47 441.75, 710.57 443.35, 712.03 446.71 C 713.50 450.06, 714.45 452.05, 716.17 455.87 C 717.89 459.69, 718.88 461.79, 720.62 465.80 C 722.37 469.81, 723.35 471.93, 724.90 475.92 C 726.45 479.91, 727.27 482.00, 728.38 485.75 C 729.49 489.50, 729.97 491.42, 730.44 494.69 C 730.92 497.95, 730.90 499.51, 730.75 502.08 C 730.61 504.65, 730.48 505.70, 729.70 507.54 C 728.92 509.37, 728.38 510.05, 726.87 511.24 C 725.36 512.43, 724.38 512.76, 722.14 513.48 C 719.91 514.20, 718.58 514.57, 715.68 514.83 C 712.79 515.10, 710.99 515.14, 707.65 514.79 C 704.32 514.43, 702.37 514.08, 699.01 513.08 C 695.66 512.08, 693.81 511.34, 690.88 509.78 C 687.95 508.23, 686.47 507.23, 684.35 505.32 C 682.24 503.40, 681.40 502.33, 680.30 500.21 C 679.21 498.09, 678.91 497.06, 678.87 494.71 C 678.84 492.35, 679.03 491.10, 680.12 488.42 C 681.21 485.75, 682.07 484.19, 684.31 481.34 C 686.55 478.48, 688.07 476.92, 691.32 474.16 C 694.56 471.40, 696.61 470.02, 700.53 467.53 C 704.45 465.04, 706.69 463.84, 710.90 461.71 C 715.12 459.58, 717.42 458.63, 721.60 456.88 C 725.78 455.14, 727.96 454.38, 731.81 452.99 C 735.65 451.60, 737.52 451.02, 740.81 449.93 C 744.11 448.85, 745.70 448.60, 748.28 447.57 C 750.85 446.54, 751.94 445.96, 753.70 444.78 C 755.46 443.61, 756.13 443.03, 757.08 441.69 C 758.03 440.36, 758.33 439.59, 758.44 438.11 C 758.56 436.63, 758.42 435.64, 757.67 434.28 C 756.92 432.93, 756.19 432.17, 754.70 431.32 C 753.22 430.48, 752.18 430.21, 750.23 430.07 C 748.28 429.93, 747.07 430.01, 744.94 430.64 C 742.80 431.28, 741.51 431.82, 739.55 433.24 C 737.59 434.67, 736.52 435.71, 735.13 437.78 C 733.75 439.84, 733.08 441.17, 732.62 443.58 C 732.16 445.98, 732.16 447.47, 732.84 449.81 C 733.52 452.15, 734.26 453.42, 736.01 455.26 C 737.77 457.11, 739.08 457.93, 741.63 459.02 C 744.19 460.12, 745.83 460.46, 748.77 460.73 C 751.72 461.01, 753.45 460.90, 756.36 460.42 C 759.28 459.94, 760.84 459.47, 763.36 458.36 C 765.88 457.24, 767.10 456.51, 768.95 454.86 C 770.80 453.21, 771.65 452.20, 772.60 450.11 C 773.56 448.03, 773.83 446.70, 773.73 444.45 C 773.64 442.20, 773.21 440.89, 772.12 438.87 C 771.04 436.85, 770.08 435.80, 768.32 434.35 C 766.56 432.90, 765.26 432.20, 763.32 431.61 C 761.39 431.03, 760.12 431.16, 758.64 431.42 C 757.17 431.68, 756.47 432.19, 755.93 432.90 C 755.38 433.61, 755.52 434.27, 755.94 434.98 C 756.35 435.68, 756.99 435.85, 757.99 436.43 C 758.98 437.01, 759.65 437.24, 760.89 437.89 C 762.13 438.53, 762.99 438.81, 764.17 439.66 C 765.35 440.50, 766.01 441.07, 766.80 442.12 C 767.59 443.17, 767.93 443.78, 768.11 444.90 C 768.28 446.03, 768.25 446.67, 767.68 447.76 C 767.12 448.85, 766.63 449.42, 765.29 450.35 C 763.96 451.28, 763.00 451.75, 761.02 452.41 C 759.04 453.07, 757.73 453.38, 755.39 453.65 C 753.06 453.93, 751.64 453.96, 749.36 453.79 C 747.08 453.63, 745.83 453.39, 743.99 452.82 C 742.15 452.25, 741.28 451.84, 740.16 450.93 C 739.04 450.01, 738.69 449.43, 738.38 448.25 C 738.08 447.07, 738.19 446.33, 738.62 445.03 C 739.06 443.72, 739.58 442.94, 740.58 441.72 C 741.57 440.50, 742.33 439.82, 743.61 438.93 C 744.90 438.04, 745.72 437.70, 746.99 437.28 C 748.26 436.86, 748.94 436.86, 749.96 436.85 C 750.97 436.83, 751.34 437.04, 752.06 437.20 C 752.78 437.35, 753.10 437.46, 753.57 437.61 C 754.05 437.75, 754.38 437.71, 754.43 437.94 C 754.47 438.17, 754.46 438.30, 753.80 438.77 C 753.14 439.24, 752.66 439.57, 751.13 440.28 C 749.59 440.99, 748.52 441.30, 746.12 442.32 C 743.71 443.34, 742.27 444.04, 739.10 445.38 C 735.93 446.71, 734.08 447.43, 730.26 449.00 C 726.45 450.57, 724.26 451.38, 720.04 453.22 C 715.82 455.07, 713.48 456.04, 709.14 458.22 C 704.81 460.39, 702.51 461.58, 698.39 464.09 C 694.26 466.60, 692.10 467.93, 688.52 470.76 C 684.95 473.59, 683.20 475.11, 680.53 478.23 C 677.86 481.34, 676.63 483.01, 675.17 486.32 C 673.71 489.63, 673.20 491.48, 673.23 494.78 C 673.27 498.07, 673.82 499.87, 675.33 502.78 C 676.84 505.69, 678.15 507.01, 680.78 509.32 C 683.41 511.64, 685.13 512.62, 688.48 514.36 C 691.82 516.10, 693.79 516.86, 697.49 518.03 C 701.18 519.20, 703.24 519.66, 706.96 520.21 C 710.68 520.75, 712.64 520.95, 716.09 520.78 C 719.53 520.61, 721.31 520.43, 724.19 519.36 C 727.08 518.30, 728.45 517.38, 730.53 515.44 C 732.61 513.50, 733.46 512.28, 734.60 509.66 C 735.75 507.04, 736.14 505.51, 736.27 502.35 C 736.40 499.19, 735.99 497.43, 735.27 493.85 C 734.54 490.26, 733.92 488.32, 732.65 484.42 C 731.38 480.53, 730.50 478.43, 728.91 474.36 C 727.32 470.29, 726.34 468.16, 724.72 464.09 C 723.10 460.02, 722.15 457.91, 720.80 454.02 C 719.44 450.14, 718.79 448.06, 717.94 444.68 C 717.09 441.29, 717.24 439.51, 716.54 437.11 C 715.84 434.70, 715.38 433.83, 714.45 432.65 C 713.52 431.47, 712.87 431.25, 711.91 431.20 C 710.95 431.16, 710.35 431.50, 709.65 432.43 C 708.95 433.37, 708.90 434.19, 708.43 435.87 C 707.96 437.55, 707.91 438.78, 707.30 440.83 C 706.69 442.88, 706.32 444.16, 705.38 446.11 C 704.45 448.07, 703.92 449.10, 702.63 450.62 C 701.34 452.15, 700.59 452.79, 698.94 453.75 C 697.30 454.70, 696.34 455.03, 694.41 455.40 C 692.47 455.78, 691.37 455.88, 689.27 455.61 C 687.17 455.35, 686.00 455.07, 683.90 454.09 C 681.81 453.11, 680.65 452.39, 678.80 450.70 C 676.95 449.02, 676.11 447.71, 674.66 445.67 C 673.22 443.63, 672.70 442.28, 671.56 440.49 C 670.41 438.71, 669.87 437.84, 668.93 436.75 C 667.99 435.65, 667.74 435.25, 666.86 435.01 C 665.98 434.76, 665.20 434.82, 664.54 435.54" style="stroke: black; fill: black;"/><path d="M 785.98,431.46 C 785.10 431.76, 784.53 432.22, 783.97 433.51 C 783.40 434.81, 783.03 435.85, 783.14 437.93 C 783.26 440.01, 783.52 441.58, 784.55 443.92 C 785.58 446.26, 786.50 447.62, 788.30 449.64 C 790.11 451.66, 791.26 452.65, 793.57 454.03 C 795.87 455.42, 797.25 455.94, 799.84 456.57 C 802.42 457.20, 803.84 457.30, 806.49 457.19 C 809.14 457.09, 810.57 456.83, 813.07 456.05 C 815.58 455.26, 816.87 454.67, 819.03 453.27 C 821.19 451.87, 822.24 450.96, 823.87 449.05 C 825.51 447.13, 826.28 445.88, 827.20 443.70 C 828.12 441.53, 828.45 440.16, 828.50 438.17 C 828.55 436.19, 828.29 434.98, 827.44 433.77 C 826.59 432.57, 825.52 432.07, 824.25 432.15 C 822.97 432.23, 821.85 432.82, 821.06 434.16 C 820.26 435.50, 819.98 436.79, 820.28 438.84 C 820.57 440.90, 821.22 442.29, 822.54 444.43 C 823.85 446.57, 824.92 447.69, 826.85 449.55 C 828.77 451.41, 829.93 452.31, 832.17 453.72 C 834.40 455.13, 835.68 455.74, 838.02 456.62 C 840.36 457.49, 841.62 457.78, 843.87 458.09 C 846.11 458.40, 847.23 458.44, 849.23 458.19 C 851.24 457.93, 852.24 457.66, 853.89 456.82 C 855.55 455.97, 856.32 455.32, 857.50 453.96 C 858.68 452.60, 859.14 451.70, 859.81 450.01 C 860.48 448.33, 860.66 447.28, 860.85 445.55 C 861.05 443.81, 860.93 442.78, 860.78 441.33 C 860.63 439.89, 860.38 439.17, 860.09 438.32 C 859.81 437.46, 859.53 437.24, 859.34 437.06 C 859.14 436.88, 858.95 437.11, 859.12 437.41 C 859.29 437.70, 859.44 438.11, 860.19 438.54 C 860.94 438.96, 861.55 439.18, 862.87 439.55 C 864.19 439.91, 865.08 440.02, 866.80 440.36 C 868.53 440.71, 869.52 440.90, 871.48 441.29 C 873.43 441.67, 874.54 441.93, 876.57 442.29 C 878.60 442.65, 879.78 442.92, 881.63 443.09 C 883.49 443.26, 884.40 443.30, 885.85 443.13 C 887.30 442.96, 888.20 442.84, 888.90 442.22 C 889.59 441.60, 889.73 440.87, 889.32 440.04 C 888.91 439.21, 888.14 438.79, 886.86 438.07 C 885.57 437.35, 884.71 437.00, 882.92 436.46 C 881.13 435.92, 879.90 435.79, 877.90 435.38 C 875.91 434.96, 874.84 434.82, 872.94 434.39 C 871.05 433.95, 870.15 433.66, 868.45 433.22 C 866.74 432.78, 865.92 432.41, 864.40 432.19 C 862.89 431.96, 862.17 431.87, 860.87 432.09 C 859.56 432.30, 858.92 432.58, 857.86 433.25 C 856.80 433.92, 856.28 434.43, 855.57 435.43 C 854.87 436.42, 854.65 437.02, 854.33 438.23 C 854.01 439.45, 854.06 440.16, 853.98 441.51 C 853.90 442.87, 853.98 443.68, 853.94 445.01 C 853.89 446.35, 853.92 447.09, 853.76 448.21 C 853.60 449.32, 853.56 449.83, 853.12 450.58 C 852.67 451.33, 852.43 451.58, 851.56 451.95 C 850.69 452.31, 850.10 452.40, 848.77 452.41 C 847.44 452.42, 846.58 452.36, 844.91 452.01 C 843.23 451.65, 842.20 451.40, 840.39 450.63 C 838.58 449.87, 837.54 449.37, 835.87 448.17 C 834.19 446.97, 833.31 446.19, 832.01 444.65 C 830.70 443.11, 830.21 442.08, 829.36 440.48 C 828.51 438.88, 828.41 437.89, 827.76 436.67 C 827.10 435.44, 826.79 434.93, 826.07 434.36 C 825.35 433.79, 824.83 433.71, 824.17 433.81 C 823.52 433.92, 823.17 434.15, 822.79 434.89 C 822.40 435.63, 822.55 436.25, 822.25 437.51 C 821.96 438.77, 821.94 439.70, 821.30 441.20 C 820.67 442.70, 820.20 443.64, 819.07 445.00 C 817.95 446.36, 817.24 447.02, 815.67 448.00 C 814.10 448.99, 813.10 449.35, 811.20 449.91 C 809.31 450.47, 808.17 450.70, 806.19 450.81 C 804.21 450.92, 803.14 450.90, 801.30 450.47 C 799.45 450.04, 798.49 449.68, 796.97 448.65 C 795.45 447.62, 794.74 446.85, 793.70 445.32 C 792.66 443.79, 792.37 442.74, 791.77 441.02 C 791.16 439.30, 791.15 438.16, 790.69 436.71 C 790.23 435.26, 789.95 434.71, 789.48 433.77 C 789.02 432.84, 789.07 432.49, 788.37 432.03 C 787.67 431.57, 786.86 431.16, 785.98 431.46" style="stroke: black; fill: black;"/><path d="M 1016.38,435.44 C 1016.47 434.42, 1016.16 433.52, 1015.10 432.39 C 1014.04 431.26, 1013.11 430.49, 1011.07 429.81 C 1009.03 429.12, 1007.53 428.81, 1004.90 428.99 C 1002.28 429.16, 1000.73 429.51, 997.94 430.68 C 995.14 431.84, 993.56 432.84, 990.92 434.81 C 988.29 436.78, 986.75 438.03, 984.78 440.52 C 982.80 443.00, 981.87 444.58, 981.03 447.24 C 980.20 449.91, 980.09 451.45, 980.60 453.82 C 981.11 456.19, 981.84 457.42, 983.56 459.09 C 985.28 460.76, 986.64 461.48, 989.19 462.18 C 991.74 462.89, 993.44 462.94, 996.31 462.61 C 999.19 462.29, 1000.76 461.72, 1003.57 460.57 C 1006.37 459.43, 1007.81 458.60, 1010.33 456.90 C 1012.85 455.19, 1014.19 454.15, 1016.17 452.05 C 1018.14 449.94, 1019.14 448.51, 1020.18 446.36 C 1021.23 444.22, 1021.43 442.75, 1021.38 441.32 C 1021.34 439.89, 1020.58 439.27, 1019.96 439.21 C 1019.34 439.15, 1018.52 439.71, 1018.27 441.02 C 1018.02 442.34, 1017.91 443.71, 1018.71 445.78 C 1019.51 447.84, 1020.49 449.32, 1022.25 451.36 C 1024.02 453.39, 1025.34 454.36, 1027.56 455.95 C 1029.77 457.54, 1030.97 458.19, 1033.34 459.30 C 1035.71 460.40, 1036.96 460.85, 1039.40 461.48 C 1041.84 462.10, 1043.13 462.30, 1045.53 462.42 C 1047.94 462.55, 1049.28 462.71, 1051.44 462.12 C 1053.60 461.52, 1055.49 460.56, 1056.32 459.43 C 1057.16 458.31, 1056.76 457.14, 1055.63 456.48 C 1054.49 455.82, 1052.59 456.18, 1050.65 456.13 C 1048.71 456.07, 1047.86 456.33, 1045.93 456.19 C 1044.00 456.04, 1042.94 455.90, 1040.98 455.39 C 1039.01 454.88, 1037.93 454.56, 1036.11 453.62 C 1034.28 452.68, 1033.35 452.12, 1031.85 450.68 C 1030.35 449.24, 1029.78 448.17, 1028.59 446.41 C 1027.39 444.65, 1027.02 443.40, 1025.87 441.88 C 1024.72 440.36, 1024.09 439.60, 1022.82 438.81 C 1021.54 438.03, 1020.73 437.79, 1019.51 437.93 C 1018.29 438.08, 1017.69 438.50, 1016.71 439.56 C 1015.73 440.62, 1015.66 441.63, 1014.60 443.22 C 1013.55 444.81, 1013.03 445.90, 1011.44 447.51 C 1009.84 449.12, 1008.71 449.95, 1006.62 451.29 C 1004.54 452.63, 1003.25 453.31, 1001.00 454.20 C 998.75 455.10, 997.51 455.41, 995.40 455.75 C 993.28 456.10, 992.12 456.06, 990.41 455.93 C 988.71 455.80, 987.86 455.69, 986.87 455.11 C 985.88 454.53, 985.53 454.15, 985.46 453.03 C 985.39 451.90, 985.63 451.10, 986.54 449.48 C 987.44 447.86, 988.28 446.76, 989.97 444.93 C 991.66 443.09, 992.84 441.86, 994.98 440.32 C 997.12 438.77, 998.58 438.07, 1000.66 437.20 C 1002.74 436.32, 1003.70 436.08, 1005.39 435.95 C 1007.09 435.82, 1007.81 436.27, 1009.14 436.55 C 1010.48 436.83, 1010.97 437.16, 1012.07 437.35 C 1013.17 437.55, 1013.79 437.90, 1014.65 437.52 C 1015.51 437.14, 1016.29 436.47, 1016.38 435.44" style="stroke: black; fill: black;"/><path d="M 1087.85,439.95 C 1087.96 438.88, 1087.63 437.89, 1086.54 436.62 C 1085.45 435.34, 1084.51 434.47, 1082.40 433.56 C 1080.28 432.66, 1078.70 432.16, 1075.97 432.11 C 1073.24 432.07, 1071.59 432.40, 1068.75 433.34 C 1065.92 434.28, 1064.30 435.08, 1061.79 436.82 C 1059.28 438.57, 1057.92 439.75, 1056.20 442.07 C 1054.49 444.39, 1053.75 445.90, 1053.23 448.43 C 1052.70 450.95, 1052.79 452.45, 1053.58 454.71 C 1054.37 456.98, 1055.27 458.17, 1057.18 459.76 C 1059.08 461.35, 1060.50 461.99, 1063.12 462.67 C 1065.74 463.35, 1067.37 463.44, 1070.29 463.16 C 1073.22 462.88, 1074.88 462.51, 1077.73 461.28 C 1080.59 460.06, 1082.09 459.15, 1084.56 457.05 C 1087.03 454.94, 1088.22 453.61, 1090.09 450.76 C 1091.96 447.91, 1092.77 446.18, 1093.91 442.78 C 1095.06 439.38, 1095.42 437.36, 1095.80 433.74 C 1096.18 430.12, 1096.10 428.17, 1095.82 424.68 C 1095.53 421.20, 1095.23 419.33, 1094.36 416.32 C 1093.48 413.32, 1092.88 411.74, 1091.45 409.66 C 1090.01 407.59, 1088.87 406.58, 1087.18 405.93 C 1085.49 405.27, 1084.42 405.41, 1083.02 406.37 C 1081.62 407.33, 1080.60 408.36, 1080.17 410.71 C 1079.74 413.06, 1080.05 414.88, 1080.87 418.13 C 1081.69 421.38, 1082.77 423.38, 1084.27 426.95 C 1085.77 430.53, 1086.66 432.55, 1088.36 436.01 C 1090.07 439.47, 1091.05 441.20, 1092.80 444.26 C 1094.55 447.33, 1095.36 448.87, 1097.12 451.34 C 1098.88 453.82, 1099.88 454.88, 1101.59 456.65 C 1103.30 458.42, 1104.10 459.20, 1105.67 460.18 C 1107.25 461.16, 1108.22 461.38, 1109.46 461.55 C 1110.69 461.72, 1111.29 461.46, 1111.85 461.01 C 1112.41 460.57, 1112.41 459.95, 1112.25 459.33 C 1112.10 458.71, 1111.73 458.61, 1111.06 457.93 C 1110.39 457.26, 1109.96 456.99, 1108.91 455.95 C 1107.85 454.92, 1107.20 454.37, 1105.78 452.76 C 1104.36 451.15, 1103.51 450.14, 1101.82 447.90 C 1100.12 445.67, 1099.06 444.41, 1097.32 441.58 C 1095.57 438.76, 1094.60 437.10, 1093.09 433.77 C 1091.59 430.45, 1090.83 428.45, 1089.79 424.97 C 1088.75 421.49, 1088.60 419.28, 1087.91 416.40 C 1087.22 413.51, 1086.88 412.17, 1086.34 410.53 C 1085.79 408.89, 1085.52 408.50, 1085.18 408.20 C 1084.85 407.89, 1084.47 408.11, 1084.66 408.99 C 1084.86 409.88, 1085.42 410.81, 1086.18 412.63 C 1086.94 414.45, 1087.67 415.59, 1088.48 418.11 C 1089.28 420.64, 1089.85 422.24, 1090.22 425.25 C 1090.59 428.26, 1090.66 430.04, 1090.33 433.17 C 1090.01 436.31, 1089.63 438.09, 1088.61 440.95 C 1087.59 443.80, 1086.83 445.21, 1085.23 447.45 C 1083.63 449.70, 1082.60 450.64, 1080.60 452.18 C 1078.60 453.72, 1077.42 454.31, 1075.22 455.15 C 1073.03 456.00, 1071.78 456.18, 1069.64 456.40 C 1067.49 456.61, 1066.31 456.49, 1064.49 456.22 C 1062.67 455.96, 1061.75 455.72, 1060.54 455.07 C 1059.33 454.43, 1058.81 454.02, 1058.44 452.99 C 1058.06 451.97, 1058.10 451.29, 1058.65 449.94 C 1059.21 448.58, 1059.82 447.67, 1061.22 446.20 C 1062.63 444.73, 1063.72 443.84, 1065.67 442.59 C 1067.62 441.33, 1068.93 440.63, 1070.96 439.95 C 1072.98 439.26, 1074.02 439.12, 1075.81 439.18 C 1077.59 439.24, 1078.41 439.78, 1079.89 440.23 C 1081.36 440.68, 1081.95 441.09, 1083.17 441.43 C 1084.40 441.77, 1085.06 442.24, 1086.00 441.94 C 1086.93 441.64, 1087.74 441.01, 1087.85 439.95" style="stroke: black; fill: black;"/><path d="M 1145.89,433.81 C 1145.71 432.75, 1145.13 431.85, 1143.68 430.82 C 1142.22 429.80, 1141.02 429.19, 1138.63 428.68 C 1136.24 428.17, 1134.47 428.01, 1131.73 428.26 C 1128.98 428.50, 1127.34 428.95, 1124.91 429.90 C 1122.48 430.86, 1121.16 431.49, 1119.58 433.04 C 1118.01 434.58, 1117.30 435.65, 1117.02 437.63 C 1116.75 439.60, 1116.93 440.90, 1118.20 442.90 C 1119.46 444.90, 1120.66 446.03, 1123.35 447.62 C 1126.05 449.21, 1128.17 449.55, 1131.68 450.84 C 1135.19 452.13, 1137.38 452.79, 1140.89 454.07 C 1144.40 455.35, 1146.38 456.18, 1149.25 457.26 C 1152.12 458.35, 1153.46 458.90, 1155.24 459.51 C 1157.01 460.12, 1157.65 460.17, 1158.13 460.31 C 1158.61 460.46, 1158.51 460.22, 1157.66 460.24 C 1156.81 460.26, 1155.93 460.04, 1153.89 460.41 C 1151.85 460.78, 1150.43 461.34, 1147.46 462.11 C 1144.49 462.88, 1142.56 463.56, 1139.04 464.27 C 1135.51 464.99, 1133.35 465.29, 1129.83 465.70 C 1126.31 466.11, 1124.35 466.02, 1121.44 466.32 C 1118.53 466.62, 1117.20 466.84, 1115.29 467.20 C 1113.39 467.56, 1112.84 467.69, 1111.92 468.13 C 1111.01 468.57, 1110.94 468.99, 1110.71 469.40 C 1110.48 469.81, 1110.75 470.04, 1110.77 470.18 C 1110.79 470.31, 1110.81 469.95, 1110.82 470.08 C 1110.82 470.20, 1110.52 470.43, 1110.78 470.81 C 1111.04 471.19, 1111.13 471.64, 1112.11 471.99 C 1113.09 472.34, 1113.70 472.47, 1115.68 472.55 C 1117.66 472.64, 1119.06 472.67, 1122.03 472.41 C 1124.99 472.14, 1126.93 471.70, 1130.52 471.22 C 1134.11 470.74, 1136.28 470.49, 1139.98 470.03 C 1143.67 469.57, 1145.74 469.53, 1148.98 468.91 C 1152.22 468.29, 1153.91 468.08, 1156.18 466.93 C 1158.46 465.78, 1159.42 464.80, 1160.36 463.18 C 1161.30 461.55, 1161.40 460.46, 1160.88 458.80 C 1160.37 457.13, 1159.69 456.26, 1157.80 454.85 C 1155.90 453.44, 1154.39 452.96, 1151.40 451.76 C 1148.41 450.55, 1146.31 450.14, 1142.83 448.83 C 1139.36 447.52, 1137.23 446.71, 1134.03 445.20 C 1130.83 443.70, 1129.21 442.51, 1126.83 441.30 C 1124.45 440.10, 1123.33 439.79, 1122.12 439.18 C 1120.91 438.57, 1120.68 438.56, 1120.78 438.25 C 1120.88 437.94, 1121.41 437.94, 1122.63 437.63 C 1123.86 437.31, 1124.96 436.99, 1126.89 436.67 C 1128.83 436.35, 1130.14 436.11, 1132.29 436.00 C 1134.44 435.90, 1135.77 436.07, 1137.65 436.12 C 1139.54 436.17, 1140.32 436.25, 1141.71 436.25 C 1143.10 436.25, 1143.76 436.61, 1144.59 436.13 C 1145.43 435.64, 1146.07 434.87, 1145.89 433.81" style="stroke: black; fill: black;"/></svg>