<svg xmlns="http://www.w3.org/2000/svg" id="canvas" viewBox="218.574 348.315 1026.563 194.400"><path d="M 259.36,351.70 C 258.29 352.32, 257.71 353.07, 256.93 355.32 C 256.16 357.56, 256.21 359.01, 255.49 362.92 C 254.78 366.82, 254.56 369.52, 253.37 374.85 C 252.18 380.18, 251.35 383.26, 249.54 389.57 C 247.73 395.87, 246.55 399.44, 244.33 406.38 C 242.11 413.32, 240.77 417.15, 238.46 424.27 C 236.15 431.40, 234.88 435.19, 232.77 442.00 C 230.65 448.81, 229.61 452.32, 227.89 458.34 C 226.17 464.36, 225.38 467.26, 224.15 472.09 C 222.93 476.93, 222.14 479.06, 221.74 482.52 C 221.35 485.98, 221.71 487.40, 222.19 489.39 C 222.66 491.38, 223.36 491.92, 224.10 492.46 C 224.84 493.00, 225.39 492.75, 225.88 492.09 C 226.37 491.42, 226.29 490.92, 226.53 489.12 C 226.77 487.32, 226.75 486.33, 227.08 483.10 C 227.41 479.87, 227.35 477.73, 228.18 472.96 C 229.01 468.19, 229.71 465.25, 231.24 459.25 C 232.77 453.24, 233.77 449.73, 235.81 442.93 C 237.85 436.13, 239.11 432.35, 241.45 425.25 C 243.78 418.15, 245.14 414.33, 247.49 407.42 C 249.84 400.51, 251.08 396.97, 253.19 390.70 C 255.30 384.44, 256.32 381.39, 258.02 376.11 C 259.71 370.84, 260.56 368.24, 261.65 364.33 C 262.73 360.42, 263.30 359.01, 263.44 356.58 C 263.57 354.15, 263.13 353.15, 262.32 352.18 C 261.50 351.20, 260.44 351.07, 259.36 351.70" style="stroke: black; fill: black;"/><path d="M 347.63,422.28 C 346.62 422.80, 346.30 423.39, 345.53 425.13 C 344.76 426.87, 344.39 427.99, 343.77 430.99 C 343.14 434.00, 343.23 436.20, 342.41 440.16 C 341.60 444.12, 340.98 446.60, 339.69 450.79 C 338.41 454.97, 337.50 457.41, 335.99 461.08 C 334.47 464.75, 332.96 466.43, 332.11 469.15 C 331.26 471.88, 331.27 473.28, 331.74 474.71 C 332.20 476.15, 333.05 476.67, 334.42 476.33 C 335.79 475.99, 337.25 475.35, 338.57 473.00 C 339.89 470.66, 339.86 468.39, 341.02 464.61 C 342.19 460.83, 342.84 458.26, 344.39 454.10 C 345.94 449.94, 346.98 447.54, 348.77 443.81 C 350.55 440.08, 351.67 438.25, 353.32 435.45 C 354.97 432.66, 355.84 431.54, 357.03 429.85 C 358.22 428.15, 358.46 427.55, 359.27 426.98 C 360.09 426.40, 360.18 426.58, 361.12 426.97 C 362.05 427.35, 362.40 428.06, 363.96 428.88 C 365.52 429.71, 366.56 430.41, 368.94 431.10 C 371.31 431.80, 372.82 432.24, 375.82 432.36 C 378.81 432.49, 380.55 432.28, 383.91 431.73 C 387.28 431.18, 389.12 430.66, 392.64 429.62 C 396.16 428.59, 398.07 427.80, 401.52 426.54 C 404.98 425.28, 406.96 424.62, 409.91 423.32 C 412.86 422.02, 414.66 421.31, 416.26 420.04 C 417.85 418.76, 418.10 417.54, 417.89 416.96 C 417.68 416.37, 416.63 415.99, 415.20 417.13 C 413.78 418.26, 412.77 419.65, 410.78 422.62 C 408.78 425.59, 407.50 427.99, 405.21 431.97 C 402.91 435.95, 401.44 438.42, 399.31 442.49 C 397.18 446.57, 395.97 448.68, 394.55 452.36 C 393.13 456.05, 392.25 457.85, 392.20 460.91 C 392.15 463.97, 392.76 465.56, 394.30 467.66 C 395.83 469.76, 397.17 470.76, 399.87 471.40 C 402.57 472.03, 404.45 471.96, 407.79 470.83 C 411.14 469.69, 412.87 468.25, 416.62 465.71 C 420.37 463.17, 422.44 461.49, 426.56 458.15 C 430.68 454.81, 432.99 452.75, 437.21 449.01 C 441.42 445.28, 443.70 443.07, 447.63 439.49 C 451.56 435.90, 454.01 433.95, 456.87 431.09 C 459.73 428.24, 461.16 426.92, 461.94 425.20 C 462.71 423.48, 461.96 422.53, 460.74 422.50 C 459.53 422.48, 457.80 422.87, 455.84 425.07 C 453.89 427.27, 452.95 429.73, 450.96 433.50 C 448.97 437.26, 447.71 439.90, 445.90 443.89 C 444.10 447.89, 442.88 449.94, 441.93 453.49 C 440.97 457.04, 440.55 458.86, 441.11 461.64 C 441.67 464.42, 442.61 465.82, 444.73 467.39 C 446.85 468.95, 448.60 469.72, 451.73 469.47 C 454.85 469.21, 456.64 468.08, 460.36 466.12 C 464.09 464.16, 466.16 462.62, 470.36 459.68 C 474.56 456.74, 476.95 454.83, 481.36 451.41 C 485.78 448.00, 488.23 445.91, 492.45 442.59 C 496.66 439.27, 498.92 437.42, 502.43 434.82 C 505.94 432.22, 508.11 431.34, 509.99 429.58 C 511.87 427.83, 512.00 426.68, 511.81 426.03 C 511.63 425.38, 510.53 425.29, 509.08 426.34 C 507.62 427.39, 506.46 428.64, 504.54 431.28 C 502.62 433.92, 501.56 436.25, 499.47 439.55 C 497.38 442.85, 495.83 444.76, 494.10 447.80 C 492.37 450.83, 491.22 452.32, 490.82 454.71 C 490.42 457.09, 490.84 458.45, 492.10 459.73 C 493.37 461.01, 494.77 461.64, 497.15 461.12 C 499.52 460.59, 500.88 459.34, 503.97 457.10 C 507.06 454.85, 508.81 452.84, 512.60 449.89 C 516.39 446.93, 518.79 445.04, 522.92 442.31 C 527.04 439.57, 529.66 438.05, 533.24 436.22 C 536.82 434.40, 538.76 434.06, 540.82 433.20 C 542.87 432.34, 543.21 431.81, 543.53 431.91 C 543.86 432.01, 543.26 432.35, 542.43 433.70 C 541.61 435.05, 540.48 436.20, 539.39 438.66 C 538.30 441.13, 537.70 442.98, 536.98 446.02 C 536.27 449.05, 535.67 450.89, 535.82 453.83 C 535.97 456.77, 536.28 458.48, 537.75 460.73 C 539.22 462.98, 540.42 464.16, 543.17 465.09 C 545.92 466.03, 547.79 466.05, 551.50 465.39 C 555.22 464.73, 557.74 463.43, 561.73 461.80 C 565.72 460.17, 568.22 459.13, 571.46 457.23 C 574.69 455.34, 576.91 453.88, 577.91 452.32 C 578.91 450.76, 578.26 449.57, 576.45 449.43 C 574.64 449.30, 572.29 450.44, 568.86 451.63 C 565.43 452.83, 563.07 454.08, 559.30 455.40 C 555.53 456.71, 552.97 457.49, 550.02 458.21 C 547.07 458.93, 546.01 459.02, 544.54 459.01 C 543.06 458.99, 542.84 459.00, 542.63 458.12 C 542.43 457.23, 542.87 456.48, 543.50 454.58 C 544.12 452.68, 544.78 451.26, 545.75 448.63 C 546.72 445.99, 547.80 444.31, 548.36 441.41 C 548.91 438.51, 549.09 436.62, 548.52 434.12 C 547.96 431.61, 547.40 430.26, 545.54 428.90 C 543.68 427.55, 542.22 426.85, 539.24 427.34 C 536.26 427.83, 534.48 429.23, 530.65 431.35 C 526.81 433.47, 524.37 435.19, 520.07 437.94 C 515.78 440.69, 513.25 442.46, 509.19 445.11 C 505.12 447.75, 502.77 449.06, 499.75 451.16 C 496.74 453.26, 495.34 454.14, 494.11 455.60 C 492.89 457.05, 493.15 458.08, 493.60 458.43 C 494.05 458.77, 495.02 458.67, 496.38 457.33 C 497.74 456.00, 498.51 454.47, 500.39 451.75 C 502.28 449.04, 503.56 446.95, 505.79 443.74 C 508.02 440.53, 509.87 438.73, 511.54 435.71 C 513.20 432.70, 514.00 430.98, 514.10 428.67 C 514.21 426.37, 513.60 425.01, 512.07 424.17 C 510.54 423.34, 509.01 423.16, 506.45 424.49 C 503.88 425.83, 502.60 427.93, 499.24 430.85 C 495.88 433.77, 493.76 435.71, 489.64 439.09 C 485.51 442.48, 483.04 444.53, 478.62 447.77 C 474.19 451.01, 471.72 452.79, 467.52 455.31 C 463.32 457.83, 461.00 458.93, 457.62 460.36 C 454.23 461.80, 452.65 461.91, 450.59 462.50 C 448.53 463.10, 448.08 463.61, 447.31 463.33 C 446.55 463.06, 446.61 462.72, 446.77 461.12 C 446.93 459.53, 447.14 458.25, 448.12 455.35 C 449.11 452.46, 449.83 450.30, 451.68 446.66 C 453.53 443.02, 455.19 440.66, 457.36 437.15 C 459.53 433.64, 461.46 431.90, 462.52 429.10 C 463.58 426.30, 463.37 424.61, 462.65 423.17 C 461.92 421.74, 460.84 421.13, 458.90 421.93 C 456.97 422.73, 455.85 424.32, 452.97 427.17 C 450.09 430.02, 448.23 432.49, 444.50 436.19 C 440.76 439.89, 438.48 442.07, 434.29 445.68 C 430.11 449.30, 427.73 451.27, 423.58 454.26 C 419.44 457.26, 417.20 458.71, 413.56 460.65 C 409.92 462.60, 408.00 463.02, 405.39 463.97 C 402.78 464.92, 401.92 465.23, 400.52 465.42 C 399.12 465.61, 398.80 465.73, 398.40 464.93 C 398.00 464.12, 398.18 463.49, 398.52 461.39 C 398.85 459.29, 398.93 457.67, 400.09 454.42 C 401.24 451.18, 402.19 448.97, 404.29 445.16 C 406.39 441.36, 408.01 439.05, 410.57 435.38 C 413.14 431.71, 415.11 429.90, 417.11 426.81 C 419.12 423.71, 420.24 422.27, 420.62 419.91 C 420.99 417.56, 420.34 416.27, 418.97 415.04 C 417.60 413.81, 416.19 413.45, 413.78 413.75 C 411.37 414.06, 409.84 415.26, 406.92 416.56 C 403.99 417.87, 402.35 418.99, 399.13 420.27 C 395.92 421.55, 394.06 422.19, 390.84 422.98 C 387.62 423.77, 385.91 424.02, 383.03 424.20 C 380.15 424.39, 378.82 424.16, 376.43 423.89 C 374.04 423.63, 373.09 423.33, 371.08 422.88 C 369.07 422.43, 368.28 421.98, 366.38 421.65 C 364.48 421.32, 363.51 421.08, 361.59 421.22 C 359.66 421.37, 358.65 421.46, 356.74 422.38 C 354.83 423.31, 353.82 423.86, 352.05 425.86 C 350.28 427.86, 349.59 429.29, 347.90 432.39 C 346.22 435.49, 345.44 437.50, 343.63 441.38 C 341.81 445.26, 340.77 447.66, 338.85 451.77 C 336.92 455.88, 335.69 458.26, 334.00 461.93 C 332.32 465.61, 330.89 467.42, 330.43 470.16 C 329.98 472.90, 330.77 474.41, 331.73 475.63 C 332.69 476.86, 333.78 477.04, 335.23 476.28 C 336.67 475.53, 337.69 474.50, 338.96 471.87 C 340.23 469.24, 340.32 466.99, 341.58 463.14 C 342.84 459.28, 343.80 456.84, 345.25 452.59 C 346.70 448.34, 347.54 445.87, 348.85 441.89 C 350.17 437.90, 351.15 435.85, 351.82 432.68 C 352.49 429.52, 352.45 428.09, 352.20 426.06 C 351.95 424.02, 351.50 423.26, 350.58 422.50 C 349.67 421.74, 348.64 421.75, 347.63 422.28" style="stroke: black; fill: black;"/><path d="M 665.41,428.03 C 666.45 428.68, 667.54 428.39, 668.29 428.22 C 669.04 428.06, 668.97 427.41, 669.16 427.19 C 669.35 426.98, 669.30 426.54, 669.25 427.16 C 669.19 427.79, 668.98 428.49, 668.89 430.33 C 668.80 432.18, 668.69 433.71, 668.79 436.40 C 668.89 439.09, 668.90 440.84, 669.39 443.78 C 669.89 446.72, 670.07 448.44, 671.26 451.09 C 672.46 453.73, 673.26 455.17, 675.36 456.99 C 677.46 458.80, 678.91 459.63, 681.78 460.16 C 684.66 460.70, 686.43 460.67, 689.72 459.68 C 693.02 458.68, 694.73 457.45, 698.26 455.20 C 701.78 452.95, 703.68 451.37, 707.34 448.42 C 711.00 445.47, 713.01 443.57, 716.54 440.45 C 720.08 437.34, 722.33 435.53, 725.02 432.84 C 727.70 430.16, 729.12 428.75, 729.98 427.02 C 730.83 425.28, 730.21 424.13, 729.28 424.15 C 728.36 424.16, 727.09 424.53, 725.34 427.08 C 723.59 429.64, 722.94 432.20, 720.53 436.94 C 718.13 441.69, 716.52 444.83, 713.33 450.80 C 710.14 456.76, 708.21 460.22, 704.59 466.78 C 700.97 473.33, 698.95 476.92, 695.25 483.57 C 691.55 490.23, 689.58 493.81, 686.07 500.05 C 682.56 506.29, 680.79 509.51, 677.69 514.77 C 674.59 520.03, 673.12 522.59, 670.57 526.35 C 668.02 530.12, 666.31 531.37, 664.95 533.61 C 663.59 535.86, 663.62 536.85, 663.78 537.58 C 663.94 538.32, 664.83 538.41, 665.75 537.27 C 666.66 536.14, 667.14 535.02, 668.36 531.92 C 669.58 528.81, 669.81 526.33, 671.84 521.74 C 673.87 517.15, 675.26 514.27, 678.52 508.96 C 681.78 503.65, 683.83 500.68, 688.15 495.20 C 692.47 489.72, 695.01 486.88, 700.11 481.57 C 705.22 476.26, 708.10 473.57, 713.66 468.65 C 719.22 463.73, 722.21 461.30, 727.91 456.96 C 733.61 452.62, 736.63 450.58, 742.16 446.94 C 747.69 443.31, 750.55 441.65, 755.57 438.80 C 760.59 435.94, 763.05 434.68, 767.26 432.67 C 771.47 430.66, 773.51 430.03, 776.62 428.74 C 779.73 427.44, 781.09 427.20, 782.80 426.19 C 784.51 425.18, 784.91 424.68, 785.16 423.69 C 785.40 422.71, 784.98 421.97, 784.01 421.28 C 783.04 420.58, 782.04 420.04, 780.31 420.20 C 778.58 420.37, 777.45 420.81, 775.36 422.09 C 773.26 423.37, 772.09 424.52, 769.83 426.61 C 767.58 428.69, 766.34 430.04, 764.09 432.54 C 761.83 435.04, 760.53 436.41, 758.55 439.11 C 756.57 441.81, 755.40 443.26, 754.18 446.05 C 752.97 448.84, 752.58 450.42, 752.48 453.06 C 752.39 455.70, 752.59 457.12, 753.69 459.25 C 754.78 461.38, 755.80 462.51, 757.95 463.72 C 760.10 464.92, 761.64 465.28, 764.43 465.28 C 767.21 465.27, 768.93 464.94, 771.86 463.70 C 774.78 462.45, 776.28 461.19, 779.06 459.05 C 781.84 456.92, 783.29 455.61, 785.75 453.04 C 788.22 450.47, 789.49 449.01, 791.38 446.21 C 793.28 443.41, 794.21 441.87, 795.21 439.04 C 796.22 436.20, 796.36 434.61, 796.42 432.04 C 796.49 429.46, 796.18 428.20, 795.54 426.17 C 794.89 424.13, 794.31 423.04, 793.17 421.88 C 792.04 420.71, 791.02 420.17, 789.86 420.33 C 788.70 420.49, 787.73 421.47, 787.39 422.66 C 787.05 423.85, 787.15 425.08, 788.16 426.26 C 789.18 427.45, 790.18 428.06, 792.47 428.58 C 794.76 429.10, 796.43 429.08, 799.61 428.86 C 802.80 428.65, 804.74 428.10, 808.40 427.50 C 812.06 426.90, 814.13 426.51, 817.93 425.87 C 821.72 425.23, 823.86 424.78, 827.37 424.28 C 830.88 423.78, 832.85 423.88, 835.48 423.36 C 838.11 422.84, 839.36 422.20, 840.52 421.69 C 841.69 421.17, 841.75 420.64, 841.30 420.78 C 840.85 420.92, 839.79 420.98, 838.28 422.38 C 836.77 423.77, 835.73 425.17, 833.74 427.77 C 831.76 430.36, 830.50 432.33, 828.37 435.35 C 826.24 438.37, 824.66 439.93, 823.10 442.87 C 821.55 445.80, 820.82 447.41, 820.61 450.02 C 820.40 452.62, 820.75 454.04, 822.05 455.90 C 823.36 457.75, 824.62 458.70, 827.13 459.29 C 829.64 459.88, 831.40 459.82, 834.60 458.83 C 837.79 457.84, 839.49 456.48, 843.10 454.36 C 846.72 452.24, 848.77 450.84, 852.67 448.25 C 856.56 445.66, 858.74 444.06, 862.56 441.42 C 866.39 438.78, 868.81 437.30, 871.77 435.05 C 874.74 432.80, 876.27 431.72, 877.39 430.16 C 878.51 428.59, 878.15 427.64, 877.35 427.23 C 876.55 426.83, 875.20 426.89, 873.39 428.13 C 871.57 429.38, 870.11 430.86, 868.28 433.46 C 866.44 436.06, 865.33 438.07, 864.22 441.14 C 863.11 444.20, 862.66 445.99, 862.74 448.78 C 862.82 451.58, 863.14 453.10, 864.60 455.13 C 866.07 457.15, 867.35 458.24, 870.04 458.90 C 872.73 459.56, 874.59 459.35, 878.07 458.43 C 881.55 457.52, 883.45 456.30, 887.44 454.31 C 891.42 452.32, 893.75 450.93, 898.00 448.48 C 902.26 446.03, 904.67 444.45, 908.72 442.07 C 912.76 439.69, 915.21 438.43, 918.23 436.59 C 921.26 434.76, 922.65 433.97, 923.82 432.90 C 925.00 431.83, 924.73 431.26, 924.11 431.25 C 923.48 431.24, 922.33 431.56, 920.70 432.85 C 919.07 434.14, 917.77 435.45, 915.96 437.68 C 914.14 439.92, 912.63 441.51, 911.61 444.03 C 910.59 446.55, 910.43 448.36, 910.85 450.27 C 911.27 452.17, 912.04 453.06, 913.71 453.54 C 915.37 454.02, 916.88 454.05, 919.17 452.67 C 921.47 451.29, 922.52 449.37, 925.19 446.64 C 927.87 443.91, 929.46 441.89, 932.54 439.01 C 935.63 436.13, 937.46 434.58, 940.62 432.23 C 943.78 429.88, 945.51 428.78, 948.34 427.28 C 951.18 425.78, 952.50 425.48, 954.78 424.73 C 957.07 423.98, 958.13 423.94, 959.75 423.52 C 961.37 423.09, 961.84 422.97, 962.89 422.60 C 963.94 422.22, 964.52 422.27, 965.00 421.63 C 965.48 420.99, 965.70 420.16, 965.31 419.41 C 964.91 418.65, 964.31 418.29, 963.03 417.84 C 961.75 417.39, 961.02 417.11, 958.92 417.17 C 956.83 417.23, 955.28 417.19, 952.55 418.13 C 949.82 419.08, 948.35 420.02, 945.27 421.90 C 942.19 423.78, 940.51 425.06, 937.15 427.53 C 933.79 430.00, 931.92 431.57, 928.48 434.23 C 925.03 436.90, 922.92 438.45, 919.94 440.88 C 916.95 443.31, 915.06 444.35, 913.55 446.38 C 912.04 448.41, 912.08 449.82, 912.37 451.03 C 912.66 452.24, 913.46 452.68, 915.00 452.44 C 916.54 452.19, 918.16 451.61, 920.09 449.81 C 922.01 448.01, 923.16 446.14, 924.62 443.45 C 926.08 440.76, 926.99 438.94, 927.39 436.37 C 927.78 433.80, 927.64 432.23, 926.61 430.61 C 925.57 428.99, 924.51 428.14, 922.21 428.28 C 919.92 428.42, 918.37 429.45, 915.12 431.31 C 911.87 433.17, 909.90 435.07, 905.97 437.57 C 902.03 440.08, 899.63 441.60, 895.43 443.83 C 891.23 446.06, 888.81 447.23, 884.95 448.71 C 881.10 450.20, 879.03 450.50, 876.18 451.24 C 873.33 451.99, 872.21 452.20, 870.71 452.43 C 869.22 452.65, 868.95 452.88, 868.71 452.38 C 868.48 451.87, 868.77 451.33, 869.53 449.88 C 870.30 448.43, 871.08 447.36, 872.52 445.12 C 873.96 442.88, 875.32 441.32, 876.72 438.68 C 878.13 436.03, 879.19 434.26, 879.57 431.90 C 879.95 429.53, 879.66 428.10, 878.63 426.87 C 877.60 425.65, 876.53 425.13, 874.40 425.77 C 872.28 426.41, 871.01 427.81, 868.01 430.06 C 865.01 432.31, 863.08 434.31, 859.42 437.00 C 855.75 439.70, 853.55 441.23, 849.69 443.54 C 845.83 445.84, 843.65 447.00, 840.13 448.52 C 836.60 450.03, 834.65 450.23, 832.09 451.12 C 829.53 452.01, 828.62 452.49, 827.33 452.96 C 826.04 453.43, 825.78 453.75, 825.64 453.47 C 825.50 453.19, 825.81 452.91, 826.62 451.56 C 827.43 450.22, 828.11 449.09, 829.68 446.75 C 831.24 444.41, 832.30 442.63, 834.46 439.86 C 836.62 437.10, 838.41 435.62, 840.48 432.93 C 842.55 430.23, 843.91 428.90, 844.81 426.37 C 845.70 423.85, 845.68 422.28, 844.95 420.29 C 844.22 418.31, 843.25 417.35, 841.14 416.45 C 839.04 415.54, 837.40 415.51, 834.42 415.78 C 831.44 416.05, 829.72 417.05, 826.22 417.78 C 822.73 418.51, 820.64 418.94, 816.94 419.45 C 813.24 419.95, 811.18 420.25, 807.74 420.31 C 804.29 420.36, 802.49 420.00, 799.70 419.72 C 796.90 419.45, 795.68 418.99, 793.76 418.95 C 791.84 418.90, 791.23 418.94, 790.11 419.51 C 788.99 420.08, 788.72 420.80, 788.16 421.79 C 787.59 422.77, 787.33 423.60, 787.29 424.45 C 787.25 425.30, 787.56 425.32, 787.94 426.05 C 788.32 426.77, 788.87 426.98, 789.17 428.10 C 789.48 429.21, 789.66 429.95, 789.46 431.61 C 789.27 433.28, 789.03 434.32, 788.20 436.42 C 787.37 438.53, 786.83 439.84, 785.30 442.14 C 783.78 444.45, 782.72 445.84, 780.58 447.95 C 778.44 450.06, 777.03 451.17, 774.60 452.71 C 772.16 454.25, 770.60 454.69, 768.40 455.65 C 766.20 456.61, 765.20 457.04, 763.62 457.49 C 762.04 457.94, 761.44 458.03, 760.51 457.89 C 759.59 457.74, 759.28 457.56, 759.01 456.77 C 758.74 455.98, 758.74 455.40, 759.17 453.93 C 759.61 452.46, 760.09 451.46, 761.20 449.40 C 762.30 447.35, 762.99 445.92, 764.69 443.65 C 766.39 441.39, 767.54 440.05, 769.70 438.07 C 771.86 436.08, 773.27 435.21, 775.50 433.72 C 777.74 432.24, 779.07 431.87, 780.87 430.64 C 782.66 429.41, 783.52 428.94, 784.48 427.58 C 785.44 426.23, 785.68 425.16, 785.66 423.85 C 785.64 422.55, 785.40 421.66, 784.38 421.04 C 783.36 420.43, 782.59 420.25, 780.56 420.79 C 778.54 421.32, 777.31 422.10, 774.25 423.72 C 771.19 425.33, 769.35 426.47, 765.25 428.86 C 761.14 431.25, 758.70 432.59, 753.72 435.67 C 748.74 438.74, 745.88 440.46, 740.35 444.23 C 734.81 448.00, 731.77 450.08, 726.03 454.51 C 720.29 458.94, 717.28 461.40, 711.64 466.37 C 706.01 471.35, 703.09 474.04, 697.86 479.38 C 692.63 484.71, 690.02 487.56, 685.48 493.03 C 680.93 498.51, 678.81 501.48, 675.13 506.73 C 671.45 511.98, 669.76 514.73, 667.07 519.28 C 664.38 523.83, 662.89 525.97, 661.69 529.48 C 660.49 532.98, 660.47 534.77, 661.07 536.82 C 661.68 538.86, 662.99 539.66, 664.71 539.71 C 666.43 539.77, 667.77 539.30, 669.68 537.07 C 671.59 534.85, 672.06 532.71, 674.28 528.59 C 676.49 524.48, 677.84 521.90, 680.75 516.50 C 683.66 511.10, 685.39 507.86, 688.83 501.58 C 692.27 495.30, 694.22 491.72, 697.95 485.08 C 701.67 478.45, 703.70 474.87, 707.47 468.41 C 711.23 461.95, 713.25 458.54, 716.78 452.77 C 720.31 447.01, 722.24 444.09, 725.13 439.57 C 728.01 435.04, 730.01 433.24, 731.21 430.16 C 732.41 427.08, 732.05 425.56, 731.14 424.17 C 730.22 422.78, 728.74 422.36, 726.64 423.21 C 724.55 424.06, 723.40 425.75, 720.65 428.40 C 717.91 431.05, 716.25 433.32, 712.91 436.45 C 709.57 439.57, 707.50 441.38, 703.94 444.03 C 700.37 446.69, 698.35 448.02, 695.07 449.72 C 691.80 451.42, 690.05 451.79, 687.57 452.54 C 685.09 453.29, 684.23 453.53, 682.67 453.48 C 681.11 453.43, 680.61 453.25, 679.76 452.30 C 678.91 451.34, 678.72 450.57, 678.42 448.71 C 678.11 446.84, 678.24 445.50, 678.24 442.97 C 678.23 440.43, 678.49 438.80, 678.39 436.03 C 678.28 433.27, 678.38 431.67, 677.70 429.15 C 677.02 426.63, 676.57 425.15, 674.99 423.43 C 673.41 421.71, 671.84 420.99, 669.81 420.56 C 667.78 420.13, 666.18 420.41, 664.83 421.28 C 663.49 422.16, 662.98 423.60, 663.10 424.95 C 663.21 426.29, 664.37 427.37, 665.41 428.03" style="stroke: black; fill: black;"/><path d="M 1091.14,426.92 C 1091.64 425.83, 1091.56 424.88, 1090.91 423.50 C 1090.26 422.12, 1089.61 421.19, 1087.89 420.01 C 1086.18 418.84, 1084.87 418.15, 1082.34 417.62 C 1079.81 417.09, 1078.29 416.84, 1075.24 417.35 C 1072.19 417.86, 1070.52 418.57, 1067.08 420.17 C 1063.65 421.77, 1061.70 422.88, 1058.04 425.35 C 1054.38 427.82, 1052.30 429.47, 1048.80 432.51 C 1045.30 435.55, 1043.40 437.39, 1040.53 440.54 C 1037.66 443.68, 1035.98 445.24, 1034.45 448.24 C 1032.93 451.24, 1032.60 453.00, 1032.89 455.54 C 1033.19 458.08, 1033.99 459.44, 1035.94 460.93 C 1037.88 462.43, 1039.59 463.20, 1042.62 463.01 C 1045.65 462.82, 1047.46 461.75, 1051.10 459.99 C 1054.73 458.23, 1056.78 456.83, 1060.82 454.21 C 1064.86 451.58, 1067.18 449.88, 1071.29 446.88 C 1075.41 443.87, 1077.69 442.00, 1081.38 439.19 C 1085.06 436.38, 1087.45 435.10, 1089.71 432.81 C 1091.98 430.52, 1092.59 429.10, 1092.69 427.73 C 1092.80 426.36, 1091.83 425.78, 1090.25 425.98 C 1088.66 426.17, 1086.79 426.66, 1084.76 428.72 C 1082.72 430.78, 1081.76 433.03, 1080.07 436.27 C 1078.37 439.51, 1077.26 441.58, 1076.28 444.91 C 1075.30 448.24, 1074.81 450.07, 1075.18 452.91 C 1075.54 455.75, 1076.21 457.24, 1078.11 459.13 C 1080.01 461.01, 1081.59 462.03, 1084.68 462.32 C 1087.77 462.61, 1089.68 461.84, 1093.57 460.59 C 1097.46 459.33, 1099.66 458.15, 1104.13 456.05 C 1108.60 453.95, 1111.14 452.54, 1115.93 450.09 C 1120.71 447.63, 1123.37 446.11, 1128.06 443.75 C 1132.75 441.39, 1135.26 440.09, 1139.39 438.29 C 1143.51 436.49, 1145.70 435.94, 1148.68 434.74 C 1151.66 433.53, 1152.90 433.17, 1154.30 432.27 C 1155.69 431.36, 1155.81 430.86, 1155.64 430.22 C 1155.48 429.58, 1154.76 429.12, 1153.49 429.06 C 1152.21 429.01, 1151.13 429.06, 1149.28 429.92 C 1147.43 430.79, 1146.33 431.70, 1144.24 433.39 C 1142.15 435.09, 1141.04 436.39, 1138.81 438.40 C 1136.57 440.40, 1135.16 441.39, 1133.07 443.43 C 1130.98 445.48, 1129.88 446.60, 1128.37 448.63 C 1126.85 450.67, 1126.09 451.67, 1125.49 453.60 C 1124.89 455.53, 1124.79 456.63, 1125.38 458.27 C 1125.97 459.91, 1126.75 460.95, 1128.44 461.79 C 1130.13 462.64, 1131.46 462.97, 1133.82 462.49 C 1136.19 462.01, 1137.58 461.31, 1140.25 459.39 C 1142.92 457.47, 1144.17 455.83, 1147.16 452.91 C 1150.16 449.99, 1151.90 448.32, 1155.24 444.81 C 1158.57 441.29, 1160.42 439.26, 1163.85 435.34 C 1167.29 431.43, 1169.13 429.27, 1172.41 425.21 C 1175.68 421.15, 1177.34 418.98, 1180.23 415.05 C 1183.12 411.12, 1184.47 409.08, 1186.86 405.54 C 1189.25 402.01, 1190.41 400.35, 1192.17 397.38 C 1193.93 394.41, 1194.95 393.12, 1195.65 390.69 C 1196.35 388.25, 1196.41 386.81, 1195.69 385.20 C 1194.97 383.59, 1193.89 382.71, 1192.05 382.65 C 1190.21 382.58, 1188.54 382.80, 1186.48 384.89 C 1184.42 386.98, 1183.93 389.19, 1181.75 393.10 C 1179.57 397.00, 1178.16 399.60, 1175.58 404.41 C 1173.01 409.21, 1171.41 412.06, 1168.87 417.11 C 1166.33 422.16, 1164.93 424.89, 1162.88 429.67 C 1160.84 434.44, 1159.86 436.81, 1158.65 440.99 C 1157.44 445.17, 1156.74 447.18, 1156.82 450.57 C 1156.90 453.96, 1157.50 455.59, 1159.05 457.95 C 1160.60 460.31, 1161.93 461.31, 1164.58 462.37 C 1167.24 463.43, 1169.07 463.78, 1172.32 463.26 C 1175.58 462.74, 1177.31 461.62, 1180.85 459.76 C 1184.40 457.91, 1186.26 456.58, 1190.05 453.98 C 1193.84 451.39, 1195.91 449.75, 1199.80 446.80 C 1203.68 443.84, 1205.77 442.08, 1209.47 439.22 C 1213.16 436.36, 1215.06 434.80, 1218.28 432.49 C 1221.49 430.18, 1223.20 429.30, 1225.56 427.68 C 1227.91 426.07, 1228.77 425.31, 1230.04 424.41 C 1231.32 423.52, 1231.53 423.24, 1231.94 423.20 C 1232.34 423.17, 1232.07 423.42, 1232.07 424.24 C 1232.07 425.05, 1231.86 425.74, 1231.94 427.28 C 1232.02 428.82, 1232.20 429.85, 1232.47 431.91 C 1232.75 433.98, 1233.07 435.26, 1233.31 437.58 C 1233.55 439.90, 1233.69 441.19, 1233.68 443.52 C 1233.68 445.84, 1233.63 447.07, 1233.28 449.21 C 1232.92 451.35, 1232.74 452.38, 1231.90 454.20 C 1231.07 456.02, 1230.55 456.81, 1229.11 458.32 C 1227.68 459.82, 1226.75 460.47, 1224.74 461.74 C 1222.73 463.01, 1221.56 463.69, 1219.08 464.68 C 1216.60 465.67, 1215.08 466.13, 1212.35 466.70 C 1209.61 467.28, 1208.03 467.35, 1205.40 467.56 C 1202.76 467.76, 1201.42 467.75, 1199.18 467.73 C 1196.95 467.72, 1195.81 467.54, 1194.22 467.48 C 1192.63 467.43, 1192.14 467.35, 1191.24 467.46 C 1190.34 467.57, 1190.16 467.80, 1189.71 468.02 C 1189.26 468.23, 1189.33 468.29, 1189.00 468.54 C 1188.66 468.78, 1188.23 468.81, 1188.03 469.24 C 1187.83 469.67, 1187.69 469.98, 1187.99 470.68 C 1188.29 471.38, 1188.53 472.01, 1189.53 472.73 C 1190.54 473.46, 1191.18 473.76, 1193.03 474.31 C 1194.88 474.85, 1196.18 475.23, 1198.78 475.46 C 1201.38 475.70, 1202.99 475.73, 1206.03 475.48 C 1209.07 475.24, 1210.79 474.93, 1213.97 474.23 C 1217.15 473.53, 1218.91 473.14, 1221.94 471.98 C 1224.96 470.82, 1226.54 470.13, 1229.11 468.42 C 1231.67 466.70, 1232.84 465.60, 1234.75 463.40 C 1236.66 461.20, 1237.44 459.94, 1238.67 457.42 C 1239.90 454.90, 1240.26 453.50, 1240.91 450.80 C 1241.57 448.10, 1241.70 446.67, 1241.93 443.91 C 1242.17 441.15, 1242.17 439.70, 1242.09 437.01 C 1242.00 434.32, 1241.95 432.89, 1241.51 430.47 C 1241.07 428.05, 1240.83 426.83, 1239.87 424.91 C 1238.92 422.98, 1238.22 422.06, 1236.75 420.84 C 1235.28 419.63, 1234.34 419.15, 1232.51 418.82 C 1230.69 418.49, 1229.77 418.51, 1227.62 419.21 C 1225.48 419.90, 1224.34 420.49, 1221.80 422.29 C 1219.26 424.08, 1218.01 425.58, 1214.92 428.17 C 1211.83 430.77, 1209.98 432.36, 1206.35 435.27 C 1202.72 438.18, 1200.63 439.92, 1196.77 442.72 C 1192.90 445.52, 1190.78 447.05, 1187.04 449.28 C 1183.30 451.50, 1181.31 452.52, 1178.08 453.83 C 1174.86 455.13, 1173.26 455.26, 1170.90 455.81 C 1168.55 456.36, 1167.74 456.72, 1166.29 456.57 C 1164.84 456.43, 1164.35 456.29, 1163.65 455.07 C 1162.96 453.85, 1162.86 453.02, 1162.82 450.45 C 1162.79 447.89, 1162.65 446.05, 1163.49 442.23 C 1164.33 438.42, 1165.14 436.00, 1167.01 431.38 C 1168.87 426.77, 1170.25 424.04, 1172.83 419.16 C 1175.42 414.27, 1177.05 411.45, 1179.93 406.96 C 1182.81 402.46, 1184.59 400.08, 1187.21 396.70 C 1189.83 393.31, 1191.71 392.25, 1193.03 390.02 C 1194.35 387.80, 1194.06 386.61, 1193.82 385.58 C 1193.58 384.55, 1192.73 384.35, 1191.83 384.88 C 1190.94 385.41, 1190.35 386.29, 1189.35 388.23 C 1188.34 390.16, 1188.19 391.63, 1186.83 394.55 C 1185.47 397.48, 1184.63 399.28, 1182.56 402.84 C 1180.48 406.40, 1179.20 408.45, 1176.47 412.36 C 1173.75 416.27, 1172.13 418.42, 1168.91 422.39 C 1165.69 426.36, 1163.85 428.48, 1160.38 432.21 C 1156.91 435.94, 1155.02 437.90, 1151.56 441.05 C 1148.10 444.20, 1146.26 445.74, 1143.06 447.97 C 1139.86 450.19, 1138.00 450.80, 1135.57 452.20 C 1133.14 453.60, 1132.19 454.03, 1130.90 454.97 C 1129.62 455.91, 1129.43 456.31, 1129.14 456.88 C 1128.85 457.44, 1129.04 457.81, 1129.44 457.79 C 1129.83 457.77, 1130.16 457.58, 1131.11 456.77 C 1132.05 455.97, 1132.63 455.19, 1134.17 453.77 C 1135.71 452.34, 1136.76 451.40, 1138.79 449.67 C 1140.82 447.94, 1142.01 446.82, 1144.30 445.13 C 1146.60 443.44, 1148.11 442.79, 1150.26 441.22 C 1152.41 439.65, 1153.64 438.98, 1155.05 437.29 C 1156.47 435.59, 1157.03 434.46, 1157.34 432.75 C 1157.64 431.05, 1157.46 429.88, 1156.57 428.77 C 1155.67 427.66, 1154.89 427.13, 1152.85 427.21 C 1150.81 427.29, 1149.48 427.82, 1146.36 429.15 C 1143.24 430.48, 1141.34 431.75, 1137.27 433.86 C 1133.20 435.97, 1130.69 437.31, 1126.00 439.71 C 1121.32 442.12, 1118.65 443.61, 1113.85 445.88 C 1109.05 448.16, 1106.44 449.42, 1102.02 451.10 C 1097.61 452.78, 1095.23 453.46, 1091.78 454.29 C 1088.33 455.12, 1086.84 455.04, 1084.79 455.25 C 1082.74 455.46, 1082.20 455.80, 1081.54 455.35 C 1080.87 454.91, 1081.01 454.52, 1081.46 453.02 C 1081.90 451.52, 1082.45 450.31, 1083.76 447.88 C 1085.07 445.44, 1086.21 443.61, 1087.99 440.84 C 1089.76 438.06, 1091.55 436.58, 1092.62 433.99 C 1093.70 431.41, 1093.73 429.67, 1093.36 427.93 C 1092.99 426.19, 1092.37 425.31, 1090.76 425.29 C 1089.16 425.28, 1087.89 425.91, 1085.34 427.87 C 1082.80 429.83, 1081.43 432.12, 1078.04 435.11 C 1074.64 438.09, 1072.37 439.93, 1068.35 442.79 C 1064.33 445.65, 1061.93 447.22, 1057.94 449.41 C 1053.95 451.59, 1051.68 452.48, 1048.38 453.73 C 1045.08 454.98, 1043.46 455.02, 1041.43 455.65 C 1039.40 456.28, 1038.90 456.88, 1038.21 456.89 C 1037.52 456.90, 1037.56 456.79, 1037.97 455.70 C 1038.38 454.61, 1038.89 453.73, 1040.27 451.46 C 1041.65 449.18, 1042.45 447.28, 1044.89 444.34 C 1047.32 441.40, 1049.17 439.54, 1052.45 436.76 C 1055.72 433.98, 1057.80 432.46, 1061.25 430.45 C 1064.70 428.43, 1066.67 427.69, 1069.69 426.71 C 1072.72 425.72, 1074.19 425.74, 1076.37 425.53 C 1078.55 425.32, 1079.20 425.31, 1080.60 425.63 C 1081.99 425.96, 1082.33 426.57, 1083.34 427.14 C 1084.36 427.71, 1084.66 428.12, 1085.68 428.49 C 1086.70 428.85, 1087.35 429.30, 1088.44 428.98 C 1089.54 428.67, 1090.65 428.02, 1091.14 426.92" style="stroke: black; fill: black;"/></svg>