<svg width="45" height="46" viewBox="0 0 45 46" fill="none" xmlns="http://www.w3.org/2000/svg">
<circle cx="22.7601" cy="23.0443" r="22.1458" fill="#0040FF"/>
<path d="M29.5763 32.9743C27.9664 32.6408 26.6331 32.0549 25.4934 30.9146C24.6125 30.0336 24.0613 28.9782 23.7099 27.8042C23.6419 27.5773 23.625 27.3324 23.6124 27.0941C23.6094 27.0375 23.708 26.9382 23.7754 26.9214C24.4819 26.7463 25.1841 26.5134 25.9026 26.4346C26.8461 26.3317 27.5351 26.8053 28.0135 27.6212C28.4973 28.4456 29.2272 28.9336 30.1569 29.1749C30.7713 29.3344 31.3893 29.3801 32.0007 29.3049C32.9033 29.1942 33.8353 28.8548 34.1423 27.9745C34.4492 27.0941 34.2074 26.3585 33.4587 25.8052C32.8636 25.3653 32.1421 25.3039 31.4477 25.1727C30.027 24.9044 28.578 24.7305 27.28 24.0288C26.044 23.3609 25.1306 22.4137 24.6221 21.0628C24.2574 20.0946 24.2033 19.0999 24.3676 18.1371C24.6335 16.5822 25.4405 15.2939 26.7535 14.3606C27.9383 13.5194 29.2417 13.0596 30.7033 12.973C31.7016 12.9134 32.6915 12.9634 33.6386 13.2101C35.433 13.6782 36.867 14.691 37.716 16.3933C37.9441 16.8506 38.2001 17.7105 38.2263 17.8495C38.2526 17.9885 38.157 18.0875 38.0525 18.1087C37.1841 18.2846 36.4295 18.6998 35.5371 18.7136C34.9095 18.7232 34.3709 18.4627 33.9931 17.9777C33.1422 16.8861 31.9886 16.5931 30.7051 16.7279C29.9945 16.8025 29.341 17.1027 28.8758 17.7057C28.0791 18.7383 28.5196 20.1716 29.7766 20.5225C30.5144 20.7283 31.2708 20.8739 32.0247 21.0117C33.5821 21.2963 35.1075 21.6339 36.4181 22.6135C37.3676 23.3236 38.0133 24.2388 38.3822 25.3406C38.591 25.9646 38.6481 26.6296 38.6066 27.2981C38.4845 29.2568 37.5373 30.7359 35.968 31.8479C35.279 32.3365 34.5684 32.6181 33.6826 32.8456C32.7967 33.073 31.1861 33.3079 29.5763 32.9743Z" fill="white"/>
<path fill-rule="evenodd" clip-rule="evenodd" d="M8.84232 13.5358C8.84326 13.4243 8.93409 13.3349 9.04561 13.3349C9.21955 13.3351 9.46464 13.3351 9.60553 13.3348C11.701 13.333 13.7965 13.3348 15.8919 13.3348C16.8604 13.3348 17.5542 13.351 18.3756 13.5466C19.2908 13.7638 20.1164 14.1784 20.8445 14.782C21.767 15.5462 22.3694 16.5288 22.6684 17.6679C22.9386 18.6969 22.9879 19.7452 22.746 20.8121C22.4921 21.9307 21.9866 22.8821 21.1671 23.6697C20.6429 24.1734 20.0274 24.5429 19.3582 24.8251C19.0802 24.9418 19.0441 25.0453 19.1759 25.3077C19.4966 25.9461 19.8168 26.5847 20.1371 27.2233C20.6707 28.2874 21.2044 29.3516 21.7399 30.4147C21.9393 30.8105 22.1429 31.2043 22.3465 31.5981C22.4914 31.8783 22.6364 32.1586 22.7797 32.4396C22.8206 32.5197 22.8562 32.5777 22.8943 32.6679C22.8994 32.68 22.9061 32.6974 22.9131 32.7164C22.9383 32.7844 22.9034 32.8621 22.8338 32.882V32.882C22.769 32.9006 22.7289 32.902 22.672 32.9023C22.6152 32.9026 22.1366 32.9059 21.8689 32.9083C21.1039 32.9151 20.831 32.9219 20.0666 32.9023C19.1615 32.8958 18.2243 32.0837 17.8317 31.2573C17.439 30.4309 15.1724 25.6039 15.1724 25.6039C15.1724 25.6039 14.5234 25.6047 14.0393 25.6044C13.561 25.6042 13.0915 25.6039 12.7173 25.6037C12.6181 25.6036 12.5377 25.6829 12.5377 25.7821C12.5382 27.9431 12.5333 31.7977 12.5322 32.7021C12.532 32.8111 12.4462 32.8996 12.3373 32.9044L12.2085 32.9102C11.6361 32.9111 11.138 32.9296 10.5549 32.8897C9.54862 32.8207 8.84457 32.549 8.84457 31.2587C8.83499 29.9738 8.83928 28.2601 8.84457 26.9754C8.84522 26.8181 8.84395 23.4485 8.84457 20.2209C8.84499 18.0089 8.84418 15.8636 8.84457 14.8647C8.82773 14.5932 8.85455 14.3188 8.84457 14.0385C8.84025 13.9171 8.84097 13.6975 8.84232 13.5358ZM13 21.8757C12.8457 21.8751 12.6913 21.8746 12.537 21.8741C12.537 20.1378 12.5376 18.4167 12.5388 17.0444C13.2677 17.0441 13.9966 17.0411 14.7255 17.0381C15.055 17.0368 15.3845 17.0354 15.7141 17.0343C16.3134 17.0325 16.8905 17.1504 17.417 17.4266C18.1896 17.8322 18.4887 18.5212 18.5531 19.3715C18.6482 20.6267 17.6342 21.7827 16.3303 21.8374C15.2214 21.8842 14.1106 21.88 13 21.8757Z" fill="white"/>
</svg>
