<svg width="167" height="39" viewBox="0 0 167 39" fill="none" xmlns="http://www.w3.org/2000/svg">
<path d="M11.7914 38.6C9.25807 38.6 7.12474 38.2 5.39141 37.4C3.65807 36.5667 2.10807 35.4 0.741406 33.9L5.09141 29.5C6.02474 30.5333 7.05807 31.35 8.19141 31.95C9.32474 32.55 10.6081 32.85 12.0414 32.85C13.5081 32.85 14.5247 32.6333 15.0914 32.2C15.6581 31.7333 15.9414 31.1167 15.9414 30.35C15.9414 29.1167 15.0581 28.3833 13.2914 28.15L10.4414 27.8C4.54141 27.0667 1.59141 24.3667 1.59141 19.7C1.59141 18.4333 1.82474 17.2833 2.29141 16.25C2.79141 15.1833 3.47474 14.2833 4.34141 13.55C5.24141 12.7833 6.30807 12.2 7.54141 11.8C8.80807 11.3667 10.2247 11.15 11.7914 11.15C13.1581 11.15 14.3581 11.25 15.3914 11.45C16.4581 11.6167 17.3914 11.8833 18.1914 12.25C19.0247 12.5833 19.7747 13.0167 20.4414 13.55C21.1414 14.05 21.8247 14.6167 22.4914 15.25L18.2414 19.6C17.4081 18.7667 16.4581 18.1167 15.3914 17.65C14.3581 17.15 13.2914 16.9 12.1914 16.9C10.9247 16.9 10.0247 17.1 9.49141 17.5C8.95807 17.9 8.69141 18.4333 8.69141 19.1C8.69141 19.8 8.87474 20.35 9.24141 20.75C9.64141 21.1167 10.3747 21.3833 11.4414 21.55L14.3914 21.95C20.1581 22.7167 23.0414 25.35 23.0414 29.85C23.0414 31.1167 22.7747 32.2833 22.2414 33.35C21.7081 34.4167 20.9414 35.35 19.9414 36.15C18.9747 36.9167 17.7914 37.5167 16.3914 37.95C15.0247 38.3833 13.4914 38.6 11.7914 38.6ZM38.6867 38.6C36.7201 38.6 34.9701 38.2833 33.4367 37.65C31.9034 36.9833 30.6201 36.0667 29.5867 34.9C28.5534 33.7 27.7701 32.25 27.2367 30.55C26.7034 28.85 26.4367 26.95 26.4367 24.85C26.4367 22.75 26.7034 20.8667 27.2367 19.2C27.7701 17.5 28.5534 16.05 29.5867 14.85C30.6201 13.65 31.9034 12.7333 33.4367 12.1C34.9701 11.4667 36.7201 11.15 38.6867 11.15C41.3534 11.15 43.5701 11.75 45.3367 12.95C47.1367 14.15 48.4201 15.8333 49.1867 18L43.1867 20.6C42.9534 19.6 42.4701 18.75 41.7367 18.05C41.0034 17.35 39.9867 17 38.6867 17C37.1867 17 36.0534 17.5 35.2867 18.5C34.5201 19.4667 34.1367 20.7833 34.1367 22.45V27.35C34.1367 29.0167 34.5201 30.3333 35.2867 31.3C36.0534 32.2667 37.1867 32.75 38.6867 32.75C40.0201 32.75 41.0701 32.4 41.8367 31.7C42.6367 30.9667 43.2201 30.0167 43.5867 28.85L49.3367 31.35C48.4701 33.85 47.1201 35.6833 45.2867 36.85C43.4867 38.0167 41.2867 38.6 38.6867 38.6ZM57.6168 8.95C56.1168 8.95 55.0168 8.61667 54.3168 7.95C53.6501 7.25 53.3168 6.36666 53.3168 5.3V4.2C53.3168 3.13333 53.6501 2.26667 54.3168 1.6C55.0168 0.899999 56.1168 0.549999 57.6168 0.549999C59.1168 0.549999 60.2001 0.899999 60.8668 1.6C61.5668 2.26667 61.9168 3.13333 61.9168 4.2V5.3C61.9168 6.36666 61.5668 7.25 60.8668 7.95C60.2001 8.61667 59.1168 8.95 57.6168 8.95ZM53.9168 11.75H61.3168V38H53.9168V11.75ZM77.4234 38C74.8568 38 72.9068 37.35 71.5734 36.05C70.2734 34.75 69.6234 32.85 69.6234 30.35V17.5H65.9234V11.75H67.7734C68.7734 11.75 69.4568 11.5167 69.8234 11.05C70.1901 10.55 70.3734 9.85 70.3734 8.95V4.65H77.0234V11.75H82.2234V17.5H77.0234V32.25H81.8234V38H77.4234ZM98.1188 38.6C96.1188 38.6 94.3354 38.2833 92.7688 37.65C91.2021 36.9833 89.8688 36.0667 88.7688 34.9C87.7021 33.7 86.8854 32.25 86.3188 30.55C85.7854 28.85 85.5188 26.95 85.5188 24.85C85.5188 22.7833 85.7854 20.9167 86.3188 19.25C86.8521 17.55 87.6354 16.1 88.6688 14.9C89.7354 13.7 91.0354 12.7833 92.5688 12.15C94.1021 11.4833 95.8521 11.15 97.8188 11.15C99.9854 11.15 101.835 11.5167 103.369 12.25C104.935 12.9833 106.202 13.9667 107.169 15.2C108.169 16.4333 108.885 17.8667 109.319 19.5C109.785 21.1 110.019 22.7833 110.019 24.55V26.75H93.1688V27.15C93.1688 28.8833 93.6354 30.2667 94.5688 31.3C95.5021 32.3 96.9688 32.8 98.9688 32.8C100.502 32.8 101.752 32.5 102.719 31.9C103.685 31.2667 104.585 30.5167 105.419 29.65L109.119 34.25C107.952 35.6167 106.419 36.6833 104.519 37.45C102.652 38.2167 100.519 38.6 98.1188 38.6ZM97.9688 16.6C96.4688 16.6 95.2854 17.1 94.4188 18.1C93.5854 19.0667 93.1688 20.3667 93.1688 22V22.4H102.369V21.95C102.369 20.35 102.002 19.0667 101.269 18.1C100.569 17.1 99.4688 16.6 97.9688 16.6ZM118.813 38.55C117.313 38.55 116.196 38.1833 115.463 37.45C114.763 36.6833 114.413 35.7167 114.413 34.55V33.55C114.413 32.3833 114.763 31.4333 115.463 30.7C116.196 29.9333 117.313 29.55 118.813 29.55C120.313 29.55 121.413 29.9333 122.113 30.7C122.846 31.4333 123.213 32.3833 123.213 33.55V34.55C123.213 35.7167 122.846 36.6833 122.113 37.45C121.413 38.1833 120.313 38.55 118.813 38.55ZM149.635 38C148.302 38 147.185 37.5833 146.285 36.75C145.418 35.9167 144.868 34.8 144.635 33.4H144.335C143.935 35.1 143.052 36.4 141.685 37.3C140.318 38.1667 138.635 38.6 136.635 38.6C134.002 38.6 131.985 37.9 130.585 36.5C129.185 35.1 128.485 33.25 128.485 30.95C128.485 28.1833 129.485 26.1333 131.485 24.8C133.518 23.4333 136.268 22.75 139.735 22.75H143.885V21.1C143.885 19.8333 143.552 18.8333 142.885 18.1C142.218 17.3333 141.102 16.95 139.535 16.95C138.068 16.95 136.902 17.2667 136.035 17.9C135.168 18.5333 134.452 19.25 133.885 20.05L129.485 16.15C130.552 14.5833 131.885 13.3667 133.485 12.5C135.118 11.6 137.318 11.15 140.085 11.15C143.818 11.15 146.618 11.9667 148.485 13.6C150.352 15.2333 151.285 17.6167 151.285 20.75V32.25H153.735V38H149.635ZM139.385 33.45C140.618 33.45 141.668 33.1833 142.535 32.65C143.435 32.1167 143.885 31.25 143.885 30.05V26.95H140.285C137.385 26.95 135.935 27.9333 135.935 29.9V30.65C135.935 31.6167 136.235 32.3333 136.835 32.8C137.435 33.2333 138.285 33.45 139.385 33.45ZM162.402 8.95C160.902 8.95 159.802 8.61667 159.102 7.95C158.435 7.25 158.102 6.36666 158.102 5.3V4.2C158.102 3.13333 158.435 2.26667 159.102 1.6C159.802 0.899999 160.902 0.549999 162.402 0.549999C163.902 0.549999 164.985 0.899999 165.652 1.6C166.352 2.26667 166.702 3.13333 166.702 4.2V5.3C166.702 6.36666 166.352 7.25 165.652 7.95C164.985 8.61667 163.902 8.95 162.402 8.95ZM158.702 11.75H166.102V38H158.702V11.75Z" fill="#0062FF"/>
</svg>
