<svg width="464" height="104" viewBox="0 0 464 104" fill="none" xmlns="http://www.w3.org/2000/svg">
<path d="M327.3 27.7998C342.5 27.7998 350.1 35.5998 350.1 51.0998V58.6998C350.1 74.1998 342.5 81.9998 327.3 81.9998C321.4 81.9998 316.6 80.7998 312.8 78.3998V103.6H297.7V29.3998H307.7L310.5 33.2998C314.5 29.5998 320.1 27.7998 327.3 27.7998ZM335 57.8998V51.8998C335 48.4998 334 45.8998 332 44.0998C330 42.2998 327.4 41.3998 324 41.3998C320.5 41.3998 317.8 42.2998 315.8 44.1998C313.8 45.9998 312.8 48.7998 312.8 52.2998V57.4998C312.8 61.0998 313.8 63.7998 315.9 65.5998C317.9 67.3998 320.7 68.2998 324.1 68.2998C327.4 68.2998 330.1 67.3998 332.1 65.5998C334 63.8998 335 61.2998 335 57.8998Z" fill="#009A44"/>
<path d="M384.5 27.7998C399.7 27.7998 407.3 35.5998 407.3 51.0998V58.6998C407.3 74.1998 399.7 81.9998 384.5 81.9998C378.6 81.9998 373.8 80.7998 370 78.3998V103.6H355V29.3998H365L367.8 33.2998C371.7 29.5998 377.3 27.7998 384.5 27.7998ZM392.2 57.8998V51.8998C392.2 48.4998 391.2 45.8998 389.2 44.0998C387.2 42.2998 384.6 41.3998 381.2 41.3998C377.7 41.3998 375 42.2998 373 44.1998C371 46.0998 370 48.7998 370 52.2998V57.4998C370 61.0998 371 63.7998 373.1 65.5998C375.1 67.3998 377.9 68.2998 381.3 68.2998C384.6 68.2998 387.3 67.3998 389.3 65.5998C391.3 63.8998 392.2 61.2998 392.2 57.8998Z" fill="#009A44"/>
<path d="M454 29.3999H464V80.5999H454L451.3 76.6999C447.2 80.2999 441.5 82.0999 434.2 82.0999C419.1 82.0999 411.6 74.2999 411.6 58.7999V51.1999C411.6 35.6999 419.1 27.8999 434.2 27.8999C441.5 27.8999 447.2 29.6999 451.3 33.2999L454 29.3999ZM437.7 68.3999C441.1 68.3999 443.8 67.4999 445.9 65.6999C448 63.8999 449 61.1999 449 57.5999V52.3999C449 48.7999 448 46.0999 446 44.2999C444 42.4999 441.2 41.4999 437.7 41.4999C434.4 41.4999 431.7 42.3999 429.7 44.1999C427.7 45.9999 426.7 48.5999 426.7 51.9999V57.9999C426.7 61.3999 427.7 63.9999 429.7 65.7999C431.7 67.4999 434.3 68.3999 437.7 68.3999Z" fill="#009A44"/>
<path d="M162.7 46.6997C159.5 43.4997 155.7 41.2997 151.2 39.9997C146.7 38.6997 142.2 37.6997 137.6 36.8997C133.1 36.0997 129.2 35.1997 126.1 34.0997C123 32.9997 121.4 31.4997 121.4 29.5997C121.4 27.1997 122.7 25.2997 125.2 23.8997C127.8 22.4997 131 21.7997 135 21.7997C139.4 21.7997 143 22.5997 145.9 24.2997C148.3 25.6997 149.7 27.3997 150.1 29.2997H165.7C165.4 22.9997 162.9 17.8997 158.1 13.9997C153 9.79971 145.4 7.69971 135.2 7.69971C125.1 7.69971 117.6 9.79971 112.8 13.9997C108 18.1997 105.6 23.3997 105.6 29.4997C105.6 33.1997 106.5 36.3997 108.2 39.0997C109.9 41.7997 112.1 43.6997 114.8 45.0997C117.5 46.3997 120.5 47.4997 123.7 48.3997C126.9 49.2997 130.2 49.8997 133.5 50.3997C136.8 50.8997 139.8 51.3997 142.4 51.9997C145.1 52.5997 147.3 53.4997 149 54.5997C150.7 55.6997 151.5 57.1997 151.5 59.0997C151.5 61.9997 150 64.1997 147.1 65.6997C144.2 67.1997 140.7 67.8997 136.9 67.8997C132.2 67.8997 128.1 66.9997 124.6 65.0997C121.2 63.1997 119.4 60.8997 119.4 58.0997V57.5997H103.9C103.9 64.7997 106.8 70.5997 112.6 75.1997C118.4 79.7997 126.3 81.9997 136.4 81.9997C146.2 81.9997 153.8 79.7997 159.2 75.3997C164.6 70.9997 167.3 65.4997 167.3 58.8997C167.4 53.8997 165.9 49.7997 162.7 46.6997Z" fill="#009A44"/>
<path d="M282.9 29.3999H292.9V80.5999H282.9L280.2 76.6999C276.1 80.2999 270.4 82.0999 263.1 82.0999C248 82.0999 240.5 74.2999 240.5 58.7999V51.1999C240.5 35.6999 248 27.8999 263.1 27.8999C270.4 27.8999 276.1 29.6999 280.2 33.2999L282.9 29.3999ZM266.5 68.3999C269.9 68.3999 272.6 67.4999 274.7 65.6999C276.8 63.8999 277.8 61.1999 277.8 57.5999V52.3999C277.8 48.7999 276.8 46.0999 274.8 44.2999C272.8 42.4999 270 41.4999 266.5 41.4999C263.2 41.4999 260.5 42.3999 258.5 44.1999C256.5 45.9999 255.5 48.5999 255.5 51.9999V57.9999C255.5 61.3999 256.5 63.9999 258.5 65.7999C260.5 67.4999 263.2 68.3999 266.5 68.3999Z" fill="#009A44"/>
<path d="M224.3 29.2998H239.7L227.1 80.4998H210.6L202.8 57.2998L195 80.4998H178.4L165.8 29.2998H181.2L188.1 62.5998L196.6 29.2998H208.8L217.3 62.5998L224.3 29.2998Z" fill="#009A44"/>
<path d="M40.9 12.1997C41.2 15.0997 40.1 16.5997 37.2 17.0997C32 17.9997 23.1 20.5997 17.1 28.3997C8.5 39.5997 9.4 50.2997 10.7 55.6997C11.3 58.0997 10.1 60.0997 8.1 60.9997C5.6 61.9997 2.9 60.9997 2 58.0997C0.7 53.9997 0 49.5997 0 44.9997C0 23.6997 14.9 5.89967 34.8 1.49967C38 0.799668 39.8 2.09967 40.1 5.39967L40.9 12.1997ZM81.2 60.9997C84.2 62.2997 86.2 61.4997 87.2 58.2997C93.3 38.7997 85.3 16.9997 66.9 6.39967C62.9 4.09967 58.8 2.49967 54.6 1.49967C51.6 0.799668 49.4 2.69967 49.1 5.39967C48.9 7.59967 50 9.59967 52.4 10.2997C57.7 11.8997 67.5 16.3997 72.9 29.4997C76.7 38.6997 74.5 47.6997 72.7 52.5997C71.7 55.3997 72.4 57.0997 75.1 58.2997L81.2 60.9997ZM12.5 68.6997C9.9 70.5997 9.6 72.7997 11.8 75.2997C25.6 90.2997 48.5 94.2997 66.9 83.6997C70.9 81.3997 74.3 78.5997 77.3 75.4997C79.4 73.2997 78.9 70.2997 76.7 68.6997C74.9 67.3997 72.7 67.3997 70.9 69.0997C66.9 72.8997 58.1 79.0997 44.1 77.1997C34.2 75.8997 27.5 69.4997 24.2 65.3997C22.3 63.0997 20.5 62.8997 18.1 64.5997L12.5 68.6997ZM31.2 36.0997C26.3 36.0997 22.3 40.0997 22.3 44.9997C22.3 49.8997 26.3 53.8997 31.2 53.8997C36.1 53.8997 40.1 49.8997 40.1 44.9997C40.1 40.0997 36.1 36.0997 31.2 36.0997ZM58 36.0997C53.1 36.0997 49.1 40.0997 49.1 44.9997C49.1 49.8997 53.1 53.8997 58 53.8997C62.9 53.8997 66.9 49.8997 66.9 44.9997C66.9 40.0997 62.9 36.0997 58 36.0997Z" fill="#009A44"/>
</svg>
