<svg width="181" height="91" viewBox="0 0 181 91" fill="none" xmlns="http://www.w3.org/2000/svg">
<path d="M86.1441 39.4642L92.8338 25.3922H99.6978L100.551 39.451L100.721 39.4664L107.023 24.9974H113.199L102.85 48.0905H95.6945L94.4108 33.0568L94.2498 33.0281L92.8492 36.116L87.8204 47.453C87.6108 47.9295 87.3792 48.1589 86.8234 48.1456L81.102 48.1302C80.9035 48.1302 80.7116 48.1015 80.4403 48.0817L79.1323 25.0393H85.7051L85.9919 39.4135L86.1441 39.4642ZM114.692 25.0084H121.622L123.739 38.7716L130.517 24.9422L136.248 24.9577H137.037L135.484 27.8691L124.227 48.7786C123.3 50.499 122.246 52.1378 120.861 53.5362C118.655 55.7419 115.958 56.5734 112.921 56.3528C111.827 56.2734 110.744 56.0374 109.553 55.8566L111.921 51.11C118.397 52.1842 118.605 46.2708 118.296 44.7357L114.692 25.3128C114.676 25.229 114.69 25.1429 114.69 25.0106L114.692 25.0084ZM160.878 38.454C160.472 40.6729 161.767 42.6183 163.992 43.2778C165.801 43.8159 167.599 43.5755 169.392 43.2006L171.664 42.6095C171.664 42.8741 171.697 43.1035 171.657 43.3153L170.828 47.603C170.828 47.603 170.148 47.8501 169.901 47.9118C167.851 48.4384 165.723 48.5945 163.617 48.3728C162.051 48.225 160.525 47.8942 159.109 47.1862C156.211 45.7393 154.632 43.2976 154.307 40.1105C153.875 35.8756 154.872 31.9716 157.528 28.6102C160.086 25.3723 163.549 24.232 167.524 24.4923C169.218 24.6026 170.801 25.0878 172.239 26.0715C175.614 28.3764 175.973 34.3383 171.864 36.824C170.349 37.7416 168.695 38.2136 166.959 38.4342C165.095 38.6784 163.207 38.6873 161.341 38.4606C161.202 38.443 161.061 38.4584 160.874 38.4584L160.878 38.454ZM161.407 34.0802C163.216 34.3956 164.93 34.4111 166.591 33.7825C167.149 33.5699 167.651 33.2327 168.06 32.7965C169.202 31.5393 168.673 29.7373 167.067 29.2234C165.627 28.7646 163.988 29.3226 162.973 30.635C162.21 31.6209 161.716 32.7392 161.407 34.0802ZM142.77 48.0861H135.873L140.412 25.015H145.249L145.756 29.2432C146.462 27.5052 147.3 26.0759 148.939 25.3657C150.542 24.6687 153.024 24.704 155.551 25.4936L152.719 31.3055L149.98 30.7717C147.979 30.5732 146.601 31.3805 145.921 33.3016C145.445 34.6471 145.167 36.0675 144.88 37.4924L142.774 48.1125L142.77 48.0861Z" fill="#061028"/>
<path d="M43.8211 40.4111H65.5092L53.7818 69.4882C52.1099 73.6193 48.1353 76.3168 43.724 76.3168H22.0337L33.7611 47.3347C35.433 43.2035 39.4076 40.4133 43.8189 40.4133" fill="#A9CAFF"/>
<path d="M28.4028 60.3696H40.4457C44.8569 60.3696 46.2641 60.1931 49.941 56.9464L65.4775 40.21H43.8181C39.4068 40.21 35.4322 42.9979 33.7603 47.1291L28.4028 60.3696Z" fill="#0408E0"/>
<path d="M36.5745 22.6714H58.2626L46.5374 51.583C44.8655 55.7142 40.8909 58.1999 36.4796 58.1999H14.7915L26.5189 29.4515C28.1908 25.3204 32.1654 22.6956 36.5767 22.6956" fill="#0384FF"/>
<path d="M21.041 42.7287H33.2162C37.6275 42.7287 39.0347 42.1332 42.7115 38.8821L58.2084 22.5669H36.593C32.1817 22.5669 28.2072 25.185 26.5353 29.3162L21.041 42.7287Z" fill="#0408E0"/>
<path d="M29.3289 4.5249H51.017L39.2896 33.6725C38.4801 35.6735 37.0888 37.3855 35.2957 38.5872C33.5027 39.7888 31.3903 40.4248 29.2318 40.413H7.5415L19.2689 11.519C20.9408 7.38783 24.9154 4.52711 29.3267 4.52711" fill="#004EFF"/>
</svg>
