<svg width="120" height="60" viewBox="0 0 120 60" fill="none" xmlns="http://www.w3.org/2000/svg">
<path d="M57.1121 26.1642L61.5472 16.8347H66.0979L66.6638 26.1554L66.7764 26.1656L70.9542 16.5729H75.0487L68.1876 31.8833H63.4438L62.5928 21.9162L62.486 21.8972L61.5575 23.9444L58.2234 31.4607C58.0845 31.7765 57.9309 31.9286 57.5624 31.9198L53.7692 31.9096C53.6376 31.9096 53.5104 31.8906 53.3305 31.8774L52.4634 16.6007H56.8211L57.0112 26.1305L57.1121 26.1642ZM76.0387 16.5802H80.6333L82.0371 25.705L86.5307 16.5364L90.3298 16.5466H90.8533L89.8239 18.4768L82.3602 32.3395C81.7461 33.4801 81.0471 34.5666 80.1288 35.4937C78.6664 36.956 76.878 37.5073 74.8645 37.3611C74.1391 37.3084 73.4212 37.152 72.6315 37.032L74.202 33.8852C78.4954 34.5973 78.6328 30.6769 78.4281 29.6591L76.0387 16.782C76.0285 16.7265 76.0372 16.6694 76.0372 16.5817L76.0387 16.5802ZM106.659 25.4944C106.39 26.9655 107.249 28.2553 108.724 28.6925C109.923 29.0493 111.115 28.8899 112.304 28.6413L113.81 28.2494C113.81 28.4249 113.832 28.577 113.806 28.7174L113.256 31.5601C113.256 31.5601 112.805 31.7239 112.642 31.7648C111.282 32.1139 109.871 32.2174 108.476 32.0704C107.437 31.9725 106.425 31.7531 105.487 31.2837C103.565 30.3244 102.518 28.7057 102.303 26.5926C102.017 23.785 102.678 21.1967 104.438 18.9682C106.134 16.8215 108.43 16.0655 111.065 16.238C112.188 16.3112 113.238 16.6329 114.192 17.2851C116.429 18.8132 116.667 22.7658 113.943 24.4138C112.939 25.0221 111.842 25.3351 110.691 25.4813C109.455 25.6432 108.204 25.6491 106.966 25.4988C106.874 25.4871 106.781 25.4974 106.656 25.4974L106.659 25.4944ZM107.01 22.5947C108.209 22.8038 109.346 22.814 110.447 22.3973C110.817 22.2563 111.15 22.0328 111.421 21.7436C112.178 20.9101 111.827 19.7154 110.763 19.3747C109.808 19.0705 108.721 19.4405 108.049 20.3106C107.543 20.9642 107.215 21.7056 107.01 22.5947ZM94.6538 31.8803H90.0812L93.0906 16.5846H96.2975L96.6338 19.3879C97.1017 18.2356 97.6574 17.288 98.7439 16.8171C99.807 16.355 101.452 16.3784 103.128 16.9019L101.25 20.7551L99.4341 20.4012C98.1078 20.2696 97.1939 20.8048 96.7435 22.0785C96.4276 22.9705 96.2434 23.9122 96.0533 24.8569L94.6568 31.8979L94.6538 31.8803Z" fill="#061028"/>
<path d="M29.0526 26.792H43.4314L35.6564 46.0696C34.5479 48.8085 31.9128 50.5969 28.9882 50.5969H14.6079L22.383 31.3822C23.4914 28.6433 26.1265 26.7935 29.0511 26.7935" fill="#A9CAFF"/>
<path d="M18.8306 40.0242H26.8148C29.7394 40.0242 30.6723 39.9072 33.11 37.7547L43.4105 26.6587H29.0506C26.126 26.6587 23.4909 28.507 22.3825 31.2459L18.8306 40.0242Z" fill="#0408E0"/>
<path d="M24.2484 15.0308H38.6272L30.8536 34.1987C29.7452 36.9376 27.1101 38.5856 24.1855 38.5856H9.80664L17.5817 19.5259C18.6902 16.787 21.3252 15.0468 24.2498 15.0468" fill="#0384FF"/>
<path d="M13.9497 28.3284H22.0216C24.9462 28.3284 25.8792 27.9335 28.3169 25.7781L38.591 14.9614H24.2604C21.3358 14.9614 18.7007 16.6972 17.5923 19.4361L13.9497 28.3284Z" fill="#0408E0"/>
<path d="M19.4447 3H33.8235L26.0484 22.3244C25.5117 23.651 24.5894 24.786 23.4006 25.5827C22.2118 26.3794 20.8113 26.8011 19.3803 26.7932H5L12.7751 7.63697C13.8835 4.89807 16.5186 3.00146 19.4432 3.00146" fill="#004EFF"/>
</svg>
