<svg width="178" height="53" viewBox="0 0 178 53" fill="none" xmlns="http://www.w3.org/2000/svg">
<path d="M51.8817 29.1504L61.3096 9.3186H70.983L72.186 29.1317L72.4253 29.1535L81.3061 8.76219H90.0097L75.4249 41.3075H65.3412L63.5321 20.1204L63.3052 20.08L61.3313 24.4318L54.2441 40.4091C53.9488 41.0805 53.6224 41.4038 52.8391 41.3852L44.7758 41.3634C44.4961 41.3634 44.2256 41.323 43.8433 41.295L42 8.82125H51.2631L51.6672 29.0789L51.8817 29.1504ZM92.1141 8.77773H101.881L104.865 28.1743L114.417 8.68448L122.493 8.70624H123.606L121.417 12.8094L105.552 42.2773C104.246 44.7019 102.76 47.0114 100.808 48.9822C97.7 52.0906 93.8984 53.2625 89.618 52.9516C88.0763 52.8397 86.55 52.5071 84.8715 52.2522L88.2099 45.5629C97.3363 47.0767 97.6285 38.743 97.1933 36.5795L92.1141 9.20669C92.0924 9.08857 92.111 8.96735 92.111 8.78084L92.1141 8.77773ZM157.205 27.7267C156.633 30.8538 158.457 33.5954 161.594 34.5249C164.143 35.2833 166.676 34.9445 169.203 34.4161L172.405 33.583C172.405 33.956 172.452 34.2793 172.396 34.5777L171.227 40.6205C171.227 40.6205 170.269 40.9686 169.921 41.0557C167.032 41.7978 164.032 42.0178 161.065 41.7053C158.858 41.4971 156.707 41.0308 154.712 40.033C150.627 37.9939 148.402 34.5528 147.945 30.0612C147.335 24.093 148.74 18.591 152.483 13.8538C156.089 9.29062 160.969 7.68356 166.57 8.05036C168.958 8.20578 171.189 8.88963 173.216 10.276C177.972 13.5243 178.479 21.9264 172.688 25.4296C170.552 26.7227 168.221 27.3879 165.775 27.6988C163.148 28.0429 160.488 28.0554 157.857 27.736C157.662 27.7112 157.463 27.7329 157.198 27.7329L157.205 27.7267ZM157.951 21.5627C160.5 22.0072 162.915 22.029 165.255 21.1431C166.042 20.8434 166.75 20.3682 167.326 19.7536C168.936 17.9818 168.19 15.4422 165.927 14.7179C163.897 14.0714 161.588 14.8578 160.158 16.7073C159.082 18.0968 158.386 19.6728 157.951 21.5627ZM131.684 41.3012H121.964L128.362 8.78705H135.178L135.893 14.7459C136.888 12.2965 138.069 10.2822 140.379 9.2813C142.639 8.29903 146.136 8.34877 149.698 9.46159L145.707 17.6523L141.846 16.9001C139.027 16.6203 137.084 17.758 136.126 20.4654C135.455 22.3616 135.063 24.3634 134.659 26.3715L131.691 41.3385L131.684 41.3012Z" fill="#061028"/>
<path d="M26.0127 25.7305H41.5632L33.1546 46.5788C31.9559 49.5409 29.1061 51.475 25.9432 51.475H10.3911L18.7997 30.6947C19.9985 27.7326 22.8482 25.732 26.0112 25.732" fill="#A9CAFF"/>
<path d="M14.9575 40.0409H23.5923C26.7552 40.0409 27.7642 39.9144 30.4004 37.5865L41.5402 25.5864H26.0103C22.8474 25.5864 19.9976 27.5854 18.7989 30.5475L14.9575 40.0409Z" fill="#0408E0"/>
<path d="M20.8167 13.0112H36.3672L27.9601 33.741C26.7614 36.703 23.9116 38.4853 20.7487 38.4853H5.19824L13.6068 17.8726C14.8056 14.9106 17.6554 13.0286 20.8183 13.0286" fill="#0384FF"/>
<path d="M9.6792 27.3921H18.4088C21.5718 27.3921 22.5807 26.9651 25.217 24.6341L36.3283 12.936H20.8301C17.6671 12.936 14.8174 14.8132 13.6186 17.7753L9.6792 27.3921Z" fill="#0408E0"/>
<path d="M15.6216 0H31.1721L22.7635 20.899C22.1831 22.3336 21.1855 23.5612 19.8999 24.4228C18.6142 25.2844 17.0997 25.7404 15.552 25.7319H0L8.4086 5.0148C9.60735 2.05273 12.4571 0.00158059 15.62 0.00158059" fill="#004EFF"/>
</svg>
